%TF.GenerationSoftware,KiCad,Pcbnew,no-vcs-found-3045509~61~ubuntu16.04.1*%
%TF.CreationDate,2017-11-09T02:50:32+01:00*%
%TF.ProjectId,arcar,61726361722E6B696361645F70636200,rev?*%
%TF.SameCoordinates,Original*%
%TF.FileFunction,Soldermask,Top*%
%TF.FilePolarity,Negative*%
%FSLAX46Y46*%
G04 Gerber Fmt 4.6, Leading zero omitted, Abs format (unit mm)*
G04 Created by KiCad (PCBNEW no-vcs-found-3045509~61~ubuntu16.04.1) date Thu Nov  9 02:50:32 2017*
%MOMM*%
%LPD*%
G01*
G04 APERTURE LIST*
%ADD10R,2.127200X2.127200*%
%ADD11O,2.127200X2.127200*%
%ADD12R,2.000000X0.950000*%
%ADD13R,0.950000X2.000000*%
%ADD14R,1.900000X1.650000*%
%ADD15R,4.200000X2.400000*%
%ADD16R,1.900000X2.400000*%
%ADD17R,1.600000X2.400000*%
%ADD18O,1.600000X2.400000*%
%ADD19O,2.100000X2.100000*%
%ADD20R,2.100000X2.100000*%
%ADD21O,0.700000X1.250000*%
%ADD22O,1.250000X0.700000*%
%ADD23R,2.075000X2.075000*%
%ADD24R,1.240000X1.240000*%
%ADD25C,1.240000*%
%ADD26C,2.250000*%
%ADD27C,6.000000*%
%ADD28C,2.400000*%
%ADD29R,1.650000X1.900000*%
%ADD30R,1.700000X1.900000*%
%ADD31R,1.900000X1.700000*%
%ADD32R,1.050000X1.460000*%
%ADD33R,0.630000X0.750000*%
%ADD34R,0.750000X0.630000*%
%ADD35R,5.000000X1.200000*%
%ADD36R,9.800000X11.200000*%
%ADD37R,1.100000X1.900000*%
%ADD38R,1.900000X1.100000*%
G04 APERTURE END LIST*
D10*
%TO.C,P1*%
X32512000Y-138303000D03*
D11*
X32512000Y-135763000D03*
X35052000Y-138303000D03*
X35052000Y-135763000D03*
X37592000Y-138303000D03*
X37592000Y-135763000D03*
%TD*%
D12*
%TO.C,U2*%
X57980000Y-156585000D03*
X57980000Y-157385000D03*
X57980000Y-158185000D03*
X57980000Y-158985000D03*
X57980000Y-159785000D03*
X57980000Y-160585000D03*
X57980000Y-161385000D03*
X57980000Y-162185000D03*
D13*
X59430000Y-163635000D03*
X60230000Y-163635000D03*
X61030000Y-163635000D03*
X61830000Y-163635000D03*
X62630000Y-163635000D03*
X63430000Y-163635000D03*
X64230000Y-163635000D03*
X65030000Y-163635000D03*
D12*
X66480000Y-162185000D03*
X66480000Y-161385000D03*
X66480000Y-160585000D03*
X66480000Y-159785000D03*
X66480000Y-158985000D03*
X66480000Y-158185000D03*
X66480000Y-157385000D03*
X66480000Y-156585000D03*
D13*
X65030000Y-155135000D03*
X64230000Y-155135000D03*
X63430000Y-155135000D03*
X62630000Y-155135000D03*
X61830000Y-155135000D03*
X61030000Y-155135000D03*
X60230000Y-155135000D03*
X59430000Y-155135000D03*
%TD*%
D14*
%TO.C,C12*%
X39731000Y-149479000D03*
X42231000Y-149479000D03*
%TD*%
D15*
%TO.C,U8*%
X67564000Y-139598000D03*
D16*
X67564000Y-145898000D03*
X69864000Y-145898000D03*
X65264000Y-145898000D03*
%TD*%
D17*
%TO.C,C17*%
X60960000Y-135636000D03*
D18*
X62460000Y-135636000D03*
%TD*%
D19*
%TO.C,D1*%
X74295000Y-133985000D03*
D20*
X74295000Y-136525000D03*
%TD*%
%TO.C,D2*%
X71755000Y-136525000D03*
D19*
X71755000Y-133985000D03*
%TD*%
%TO.C,D3*%
X69215000Y-133985000D03*
D20*
X69215000Y-136525000D03*
%TD*%
%TO.C,D4*%
X66675000Y-136525000D03*
D19*
X66675000Y-133985000D03*
%TD*%
D21*
%TO.C,U3*%
X82780000Y-161253000D03*
X82280000Y-161253000D03*
X81780000Y-161253000D03*
X81280000Y-161253000D03*
X80780000Y-161253000D03*
X80280000Y-161253000D03*
X79780000Y-161253000D03*
D22*
X78830000Y-162203000D03*
X78830000Y-162703000D03*
X78830000Y-163203000D03*
X78830000Y-163703000D03*
X78830000Y-164203000D03*
X78830000Y-164703000D03*
X78830000Y-165203000D03*
D21*
X79780000Y-166153000D03*
X80280000Y-166153000D03*
X80780000Y-166153000D03*
X81280000Y-166153000D03*
X81780000Y-166153000D03*
X82280000Y-166153000D03*
X82780000Y-166153000D03*
D22*
X83730000Y-165203000D03*
X83730000Y-164703000D03*
X83730000Y-164203000D03*
X83730000Y-163703000D03*
X83730000Y-163203000D03*
X83730000Y-162703000D03*
X83730000Y-162203000D03*
D23*
X80442500Y-164540500D03*
X82117500Y-164540500D03*
X80442500Y-162865500D03*
X82117500Y-162865500D03*
%TD*%
D24*
%TO.C,J1*%
X80800000Y-148700000D03*
D25*
X81800000Y-149350000D03*
X80800000Y-150000000D03*
X81800000Y-150650000D03*
X80800000Y-151300000D03*
D26*
X81020000Y-146425000D03*
X81020000Y-153575000D03*
%TD*%
D27*
%TO.C,M1*%
X54000000Y-150000000D03*
%TD*%
%TO.C,M2*%
X73000000Y-150000000D03*
%TD*%
D28*
%TO.C,SW1*%
X77750000Y-135750000D03*
X77750000Y-140250000D03*
X84250000Y-135750000D03*
X84250000Y-140250000D03*
%TD*%
D29*
%TO.C,C5*%
X74930000Y-156611000D03*
X74930000Y-159111000D03*
%TD*%
%TO.C,C6*%
X72263000Y-141752000D03*
X72263000Y-144252000D03*
%TD*%
%TO.C,C7*%
X84074000Y-156611000D03*
X84074000Y-159111000D03*
%TD*%
%TO.C,C8*%
X76835000Y-159111000D03*
X76835000Y-156611000D03*
%TD*%
%TO.C,C9*%
X49236000Y-146411000D03*
X49236000Y-143911000D03*
%TD*%
%TO.C,C10*%
X45426000Y-143911000D03*
X45426000Y-146411000D03*
%TD*%
%TO.C,C11*%
X47331000Y-146411000D03*
X47331000Y-143911000D03*
%TD*%
D14*
%TO.C,C14*%
X42231000Y-145669000D03*
X39731000Y-145669000D03*
%TD*%
D18*
%TO.C,C15*%
X56618000Y-135636000D03*
D17*
X55118000Y-135636000D03*
%TD*%
D14*
%TO.C,C16*%
X49383000Y-158750000D03*
X46883000Y-158750000D03*
%TD*%
D19*
%TO.C,J2*%
X50800000Y-165100000D03*
D20*
X48260000Y-165100000D03*
%TD*%
%TO.C,J3*%
X47625000Y-133985000D03*
D19*
X45085000Y-133985000D03*
%TD*%
D30*
%TO.C,R1*%
X73025000Y-159084000D03*
X73025000Y-156384000D03*
%TD*%
D31*
%TO.C,R2*%
X39631000Y-151384000D03*
X42331000Y-151384000D03*
%TD*%
%TO.C,R3*%
X39631000Y-147574000D03*
X42331000Y-147574000D03*
%TD*%
%TO.C,R5*%
X42331000Y-153289000D03*
X39631000Y-153289000D03*
%TD*%
D32*
%TO.C,U1*%
X81976000Y-156761000D03*
X81026000Y-156761000D03*
X80076000Y-156761000D03*
X80076000Y-158961000D03*
X81976000Y-158961000D03*
X81026000Y-158961000D03*
%TD*%
D33*
%TO.C,U5*%
X45995000Y-148775000D03*
D34*
X46025000Y-149355000D03*
X48975000Y-149355000D03*
X46025000Y-149785000D03*
X48975000Y-149785000D03*
X46025000Y-150215000D03*
X48975000Y-150215000D03*
X46025000Y-150645000D03*
X48975000Y-150645000D03*
D33*
X46425000Y-148775000D03*
X46855000Y-148775000D03*
X47285000Y-148775000D03*
X47715000Y-148775000D03*
X48145000Y-148775000D03*
X48575000Y-148775000D03*
X49005000Y-148775000D03*
X45995000Y-151225000D03*
X46425000Y-151225000D03*
X46855000Y-151225000D03*
X47285000Y-151225000D03*
X47715000Y-151225000D03*
X48145000Y-151225000D03*
X48575000Y-151225000D03*
X49005000Y-151225000D03*
%TD*%
D35*
%TO.C,U6*%
X42605000Y-165100000D03*
X42605000Y-163830000D03*
X42605000Y-162560000D03*
X42605000Y-161290000D03*
X42605000Y-160020000D03*
X42605000Y-158750000D03*
X42605000Y-157480000D03*
D36*
X33455000Y-161290000D03*
%TD*%
D37*
%TO.C,U7*%
X28702000Y-153282000D03*
X29902000Y-153282000D03*
X31102000Y-153282000D03*
X32302000Y-153282000D03*
X33502000Y-153282000D03*
D38*
X35152000Y-152032000D03*
X35152000Y-150832000D03*
X35152000Y-149632000D03*
X35152000Y-148432000D03*
X35152000Y-147232000D03*
X35152000Y-146032000D03*
D37*
X33502000Y-144782000D03*
X32302000Y-144782000D03*
X31102000Y-144782000D03*
X29902000Y-144782000D03*
X28702000Y-144782000D03*
%TD*%
D29*
%TO.C,C18*%
X62865000Y-141752000D03*
X62865000Y-144252000D03*
%TD*%
%TO.C,C19*%
X74295000Y-144252000D03*
X74295000Y-141752000D03*
%TD*%
M02*
