M48
;DRILL file {KiCad no-vcs-found-3045509~61~ubuntu16.04.1} date Thu Nov  9 02:50:34 2017
;FORMAT={-:-/ absolute / metric / decimal}
FMAT,2
METRIC,TZ
T1C0.400
T2C0.440
T3C1.000
T4C1.350
%
G90
G05
M71
T1
X28.829Y-155.321
X29.972Y-155.321
X31.03Y-158.515
X31.03Y-164.065
X31.051Y-161.29
X31.1Y-142.3
X31.115Y-155.321
X32.127Y-150.032
X32.127Y-151.032
X32.385Y-155.321
X33.127Y-150.032
X33.127Y-151.032
X33.455Y-161.29
X33.465Y-158.496
X33.465Y-164.084
X33.528Y-155.321
X35.052Y-143.954
X35.433Y-153.606
X35.877Y-161.29
X35.88Y-158.515
X35.88Y-164.065
X36.893Y-140.272
X39.7Y-158.8
X39.941Y-137.477
X40.259Y-156.21
X41.1Y-158.8
X41.148Y-156.21
X42.037Y-156.21
X42.2Y-144.3
X42.3Y-147.6
X42.475Y-151.4
X42.6Y-158.8
X42.926Y-156.21
X43.18Y-133.921
X43.815Y-156.21
X44.1Y-158.8
X44.704Y-156.21
X45.553Y-152.146
X46.Y-163.9
X46.863Y-154.242
X50.673Y-153.67
X50.863Y-147.637
X51.244Y-146.113
X54.Y-161.
X55.118Y-144.489
X55.372Y-162.877
X55.9Y-142.35
X55.9Y-138.8
X56.2Y-159.
X56.313Y-145.252
X56.85Y-138.8
X56.9Y-142.35
X57.9Y-138.8
X57.9Y-142.35
X58.166Y-153.67
X61.34Y-165.034
X62.205Y-153.188
X62.95Y-152.35
X64.262Y-152.908
X64.389Y-165.989
X64.77Y-137.16
X65.278Y-153.289
X65.381Y-165.457
X65.95Y-148.15
X66.802Y-154.813
X67.945Y-154.813
X67.945Y-159.766
X67.945Y-161.29
X67.962Y-162.762
X70.575Y-156.6
X73.Y-160.6
X75.Y-155.15
X76.01Y-146.24
X76.8Y-155.1
X77.475Y-161.793
X77.5Y-162.9
X78.6Y-157.9
X80.01Y-155.067
X80.442Y-164.54
X80.451Y-162.874
X82.117Y-162.865
X82.117Y-164.54
X84.85Y-154.55
X85.217Y-163.449
X85.255Y-164.734
T2
X80.8Y-148.7
X80.8Y-150.
X80.8Y-151.3
X81.8Y-149.35
X81.8Y-150.65
T3
X74.295Y-133.985
X74.295Y-136.525
X55.118Y-135.636
X56.618Y-135.636
X71.755Y-133.985
X71.755Y-136.525
X69.215Y-133.985
X69.215Y-136.525
X66.675Y-133.985
X66.675Y-136.525
X48.26Y-165.1
X50.8Y-165.1
X32.512Y-135.763
X32.512Y-138.303
X35.052Y-135.763
X35.052Y-138.303
X37.592Y-135.763
X37.592Y-138.303
X60.96Y-135.636
X62.46Y-135.636
X77.75Y-135.75
X77.75Y-140.25
X84.25Y-135.75
X84.25Y-140.25
X45.085Y-133.985
X47.625Y-133.985
T4
X81.02Y-146.425
X81.02Y-153.575
T0
M30
