%TF.GenerationSoftware,KiCad,Pcbnew,no-vcs-found-3045509~61~ubuntu16.04.1*%
%TF.CreationDate,2017-11-09T02:50:32+01:00*%
%TF.ProjectId,arcar,61726361722E6B696361645F70636200,rev?*%
%TF.SameCoordinates,Original*%
%TF.FileFunction,Copper,L2,Bot,Signal*%
%TF.FilePolarity,Positive*%
%FSLAX46Y46*%
G04 Gerber Fmt 4.6, Leading zero omitted, Abs format (unit mm)*
G04 Created by KiCad (PCBNEW no-vcs-found-3045509~61~ubuntu16.04.1) date Thu Nov  9 02:50:32 2017*
%MOMM*%
%LPD*%
G01*
G04 APERTURE LIST*
%TA.AperFunction,ComponentPad*%
%ADD10R,1.727200X1.727200*%
%TD*%
%TA.AperFunction,ComponentPad*%
%ADD11O,1.727200X1.727200*%
%TD*%
%TA.AperFunction,ComponentPad*%
%ADD12R,1.200000X2.000000*%
%TD*%
%TA.AperFunction,ComponentPad*%
%ADD13O,1.200000X2.000000*%
%TD*%
%TA.AperFunction,ComponentPad*%
%ADD14O,1.700000X1.700000*%
%TD*%
%TA.AperFunction,ComponentPad*%
%ADD15R,1.700000X1.700000*%
%TD*%
%TA.AperFunction,ComponentPad*%
%ADD16R,0.840000X0.840000*%
%TD*%
%TA.AperFunction,ComponentPad*%
%ADD17C,0.840000*%
%TD*%
%TA.AperFunction,ComponentPad*%
%ADD18C,1.850000*%
%TD*%
%TA.AperFunction,ComponentPad*%
%ADD19C,2.000000*%
%TD*%
%TA.AperFunction,SMDPad,CuDef*%
%ADD20R,1.250000X1.500000*%
%TD*%
%TA.AperFunction,SMDPad,CuDef*%
%ADD21R,1.500000X1.250000*%
%TD*%
%TA.AperFunction,SMDPad,CuDef*%
%ADD22R,1.800000X2.500000*%
%TD*%
%TA.AperFunction,SMDPad,CuDef*%
%ADD23R,2.500000X1.800000*%
%TD*%
%TA.AperFunction,SMDPad,CuDef*%
%ADD24R,1.300000X1.500000*%
%TD*%
%TA.AperFunction,SMDPad,CuDef*%
%ADD25R,0.600000X1.500000*%
%TD*%
%TA.AperFunction,ViaPad*%
%ADD26C,0.800000*%
%TD*%
%TA.AperFunction,Conductor*%
%ADD27C,0.250000*%
%TD*%
%TA.AperFunction,Conductor*%
%ADD28C,1.000000*%
%TD*%
%TA.AperFunction,Conductor*%
%ADD29C,0.500000*%
%TD*%
%TA.AperFunction,Conductor*%
%ADD30C,0.200000*%
%TD*%
%TA.AperFunction,Conductor*%
%ADD31C,0.254000*%
%TD*%
G04 APERTURE END LIST*
D10*
%TO.P,P1,1*%
%TO.N,/MISO*%
X32512000Y-138303000D03*
D11*
%TO.P,P1,2*%
%TO.N,VCC*%
X32512000Y-135763000D03*
%TO.P,P1,3*%
%TO.N,/SCK*%
X35052000Y-138303000D03*
%TO.P,P1,4*%
%TO.N,/MOSI*%
X35052000Y-135763000D03*
%TO.P,P1,5*%
%TO.N,/~RST*%
X37592000Y-138303000D03*
%TO.P,P1,6*%
%TO.N,GND*%
X37592000Y-135763000D03*
%TD*%
D12*
%TO.P,C17,1*%
%TO.N,Net-(C17-Pad1)*%
X60960000Y-135636000D03*
D13*
%TO.P,C17,2*%
%TO.N,GND*%
X62460000Y-135636000D03*
%TD*%
D14*
%TO.P,D1,2*%
%TO.N,VCC*%
X74295000Y-133985000D03*
D15*
%TO.P,D1,1*%
%TO.N,Net-(D1-Pad1)*%
X74295000Y-136525000D03*
%TD*%
%TO.P,D2,1*%
%TO.N,Net-(D2-Pad1)*%
X71755000Y-136525000D03*
D14*
%TO.P,D2,2*%
%TO.N,VCC*%
X71755000Y-133985000D03*
%TD*%
%TO.P,D3,2*%
%TO.N,VCC*%
X69215000Y-133985000D03*
D15*
%TO.P,D3,1*%
%TO.N,Net-(D3-Pad1)*%
X69215000Y-136525000D03*
%TD*%
%TO.P,D4,1*%
%TO.N,Net-(D4-Pad1)*%
X66675000Y-136525000D03*
D14*
%TO.P,D4,2*%
%TO.N,VCC*%
X66675000Y-133985000D03*
%TD*%
D16*
%TO.P,J1,1*%
%TO.N,VCC*%
X80800000Y-148700000D03*
D17*
%TO.P,J1,2*%
%TO.N,/D-*%
X81800000Y-149350000D03*
%TO.P,J1,3*%
%TO.N,/D+*%
X80800000Y-150000000D03*
%TO.P,J1,4*%
%TO.N,GND*%
X81800000Y-150650000D03*
%TO.P,J1,5*%
X80800000Y-151300000D03*
D18*
%TO.P,J1,6*%
X81020000Y-146425000D03*
X81020000Y-153575000D03*
%TD*%
D19*
%TO.P,SW1,2*%
%TO.N,/~RST*%
X77750000Y-135750000D03*
%TO.P,SW1,1*%
%TO.N,GND*%
X77750000Y-140250000D03*
%TO.P,SW1,2*%
%TO.N,/~RST*%
X84250000Y-135750000D03*
%TO.P,SW1,1*%
%TO.N,GND*%
X84250000Y-140250000D03*
%TD*%
D20*
%TO.P,C1,1*%
%TO.N,VCC*%
X81026000Y-159111000D03*
%TO.P,C1,2*%
%TO.N,GND*%
X81026000Y-156611000D03*
%TD*%
D21*
%TO.P,C2,2*%
%TO.N,GND*%
X63647000Y-159766000D03*
%TO.P,C2,1*%
%TO.N,+3V3*%
X66147000Y-159766000D03*
%TD*%
%TO.P,C3,1*%
%TO.N,+3V3*%
X58440000Y-159004000D03*
%TO.P,C3,2*%
%TO.N,GND*%
X60940000Y-159004000D03*
%TD*%
%TO.P,C4,1*%
%TO.N,+3V3*%
X66147000Y-161544000D03*
%TO.P,C4,2*%
%TO.N,GND*%
X63647000Y-161544000D03*
%TD*%
D20*
%TO.P,C13,2*%
%TO.N,+3V3*%
X47200000Y-147750000D03*
%TO.P,C13,1*%
%TO.N,GND*%
X47200000Y-150250000D03*
%TD*%
D13*
%TO.P,C15,2*%
%TO.N,GND*%
X56618000Y-135636000D03*
D12*
%TO.P,C15,1*%
%TO.N,VCC*%
X55118000Y-135636000D03*
%TD*%
D22*
%TO.P,D5,2*%
%TO.N,Net-(D5-Pad2)*%
X45085000Y-137192000D03*
%TO.P,D5,1*%
%TO.N,VCC*%
X45085000Y-141192000D03*
%TD*%
D23*
%TO.P,D6,1*%
%TO.N,Net-(D5-Pad2)*%
X58500000Y-142350000D03*
%TO.P,D6,2*%
%TO.N,GND*%
X62500000Y-142350000D03*
%TD*%
D22*
%TO.P,D7,2*%
%TO.N,Net-(D7-Pad2)*%
X48895000Y-137192000D03*
%TO.P,D7,1*%
%TO.N,VCC*%
X48895000Y-141192000D03*
%TD*%
D23*
%TO.P,D8,1*%
%TO.N,Net-(D7-Pad2)*%
X58500000Y-138800000D03*
%TO.P,D8,2*%
%TO.N,GND*%
X62500000Y-138800000D03*
%TD*%
D22*
%TO.P,D9,1*%
%TO.N,Net-(C17-Pad1)*%
X52705000Y-137192000D03*
%TO.P,D9,2*%
%TO.N,VCC*%
X52705000Y-141192000D03*
%TD*%
D14*
%TO.P,J2,2*%
%TO.N,Net-(J2-Pad2)*%
X50800000Y-165100000D03*
D15*
%TO.P,J2,1*%
%TO.N,Net-(J2-Pad1)*%
X48260000Y-165100000D03*
%TD*%
%TO.P,J3,1*%
%TO.N,Net-(D7-Pad2)*%
X47625000Y-133985000D03*
D14*
%TO.P,J3,2*%
%TO.N,Net-(D5-Pad2)*%
X45085000Y-133985000D03*
%TD*%
D24*
%TO.P,R4,1*%
%TO.N,+3V3*%
X40000000Y-144300000D03*
%TO.P,R4,2*%
%TO.N,/~RST*%
X40000000Y-141600000D03*
%TD*%
%TO.P,R6,2*%
%TO.N,Net-(R6-Pad2)*%
X74295000Y-141685000D03*
%TO.P,R6,1*%
%TO.N,Net-(D1-Pad1)*%
X74295000Y-138985000D03*
%TD*%
%TO.P,R7,1*%
%TO.N,Net-(D2-Pad1)*%
X71755000Y-138985000D03*
%TO.P,R7,2*%
%TO.N,Net-(R7-Pad2)*%
X71755000Y-141685000D03*
%TD*%
%TO.P,R8,2*%
%TO.N,Net-(R8-Pad2)*%
X69215000Y-141685000D03*
%TO.P,R8,1*%
%TO.N,Net-(D3-Pad1)*%
X69215000Y-138985000D03*
%TD*%
%TO.P,R9,1*%
%TO.N,+3V3*%
X45299000Y-147748000D03*
%TO.P,R9,2*%
%TO.N,Net-(R9-Pad2)*%
X45299000Y-150448000D03*
%TD*%
%TO.P,R10,1*%
%TO.N,Net-(D4-Pad1)*%
X66675000Y-138985000D03*
%TO.P,R10,2*%
%TO.N,Net-(R10-Pad2)*%
X66675000Y-141685000D03*
%TD*%
D25*
%TO.P,U4,1*%
%TO.N,/FL_LED*%
X68072000Y-150528000D03*
%TO.P,U4,2*%
%TO.N,/FR_LED*%
X66802000Y-150528000D03*
%TO.P,U4,3*%
%TO.N,/BL_LED*%
X65532000Y-150528000D03*
%TO.P,U4,4*%
%TO.N,/BR_LED*%
X64262000Y-150528000D03*
%TO.P,U4,5*%
%TO.N,GND*%
X62992000Y-150528000D03*
%TO.P,U4,6*%
X61722000Y-150528000D03*
%TO.P,U4,7*%
X60452000Y-150528000D03*
%TO.P,U4,8*%
X59182000Y-150528000D03*
%TO.P,U4,9*%
%TO.N,Net-(U4-Pad9)*%
X59182000Y-145128000D03*
%TO.P,U4,10*%
%TO.N,Net-(U4-Pad10)*%
X60452000Y-145128000D03*
%TO.P,U4,11*%
%TO.N,Net-(U4-Pad11)*%
X61722000Y-145128000D03*
%TO.P,U4,12*%
%TO.N,Net-(U4-Pad12)*%
X62992000Y-145128000D03*
%TO.P,U4,13*%
%TO.N,Net-(R10-Pad2)*%
X64262000Y-145128000D03*
%TO.P,U4,14*%
%TO.N,Net-(R8-Pad2)*%
X65532000Y-145128000D03*
%TO.P,U4,15*%
%TO.N,Net-(R7-Pad2)*%
X66802000Y-145128000D03*
%TO.P,U4,16*%
%TO.N,Net-(R6-Pad2)*%
X68072000Y-145128000D03*
%TD*%
D26*
%TO.N,GND*%
X64770000Y-137160000D03*
X43180000Y-133921500D03*
X50863500Y-147637500D03*
X55372000Y-162877500D03*
X76009500Y-146240500D03*
X51244500Y-146113500D03*
X39941500Y-137477500D03*
X36893500Y-140271500D03*
X35052000Y-143954500D03*
X35433000Y-153606500D03*
X33528000Y-155321000D03*
X32385000Y-155321000D03*
X31115000Y-155321000D03*
X29972000Y-155321000D03*
X28829000Y-155321000D03*
X33464500Y-164084000D03*
X35877500Y-161290000D03*
X31051500Y-161290000D03*
X33464500Y-158496000D03*
X80451160Y-162874160D03*
X54000000Y-161000000D03*
%TO.N,/~RST*%
X70574969Y-156600000D03*
X84850000Y-154550000D03*
%TO.N,+3V3*%
X46863000Y-154241500D03*
X67945000Y-161290000D03*
X67945000Y-159766000D03*
%TO.N,/MISO*%
X55118000Y-144489010D03*
X85216996Y-163449000D03*
X65380817Y-165456817D03*
%TO.N,/SCK*%
X67962340Y-162762340D03*
X65950000Y-148150000D03*
%TO.N,/MOSI*%
X56312898Y-145252366D03*
X85255155Y-164734262D03*
%TO.N,/SDA*%
X42475165Y-151399845D03*
X62950000Y-152350000D03*
%TO.N,/SCL*%
X62205021Y-153187660D03*
X42300000Y-147600000D03*
%TO.N,GND*%
X75000000Y-155150010D03*
X76800000Y-155100000D03*
X32127000Y-150032000D03*
X33127000Y-150032000D03*
X33127000Y-151032000D03*
X32127000Y-151032000D03*
X80442500Y-164540500D03*
X82117500Y-164540500D03*
X82117500Y-162865500D03*
X33455000Y-161290000D03*
X35880000Y-158515000D03*
X35880000Y-164065000D03*
X31030000Y-158515000D03*
X31030000Y-164065000D03*
%TO.N,+3V3*%
X31100000Y-142300000D03*
X42200000Y-144300000D03*
X56200000Y-159000000D03*
%TO.N,VCC*%
X44100000Y-158800000D03*
X42600000Y-158800000D03*
X41100000Y-158800000D03*
X39700000Y-158800000D03*
X78600000Y-157900000D03*
X77474660Y-161793340D03*
%TO.N,Net-(D5-Pad2)*%
X57900000Y-142350000D03*
X56900000Y-142350000D03*
X55900000Y-142350000D03*
%TO.N,Net-(D7-Pad2)*%
X57900000Y-138800000D03*
X56850000Y-138800000D03*
X55900006Y-138800000D03*
%TO.N,Net-(J2-Pad2)*%
X40259000Y-156210000D03*
X44704000Y-156210000D03*
X41148000Y-156210000D03*
X42037000Y-156210000D03*
X43815000Y-156210000D03*
X42926000Y-156210000D03*
%TO.N,/MOSI*%
X64389000Y-165989000D03*
%TO.N,Net-(R1-Pad2)*%
X73000000Y-160600000D03*
X77500000Y-162900000D03*
%TO.N,Net-(R9-Pad2)*%
X45553000Y-152146000D03*
%TO.N,/MOTOR_ERR*%
X61340314Y-165033962D03*
X46000000Y-163900000D03*
%TO.N,/FL_LED*%
X67945000Y-154813004D03*
%TO.N,/FR_LED*%
X66801992Y-154813000D03*
%TO.N,/BL_LED*%
X65278000Y-153289000D03*
%TO.N,/BR_LED*%
X64262000Y-152908000D03*
%TO.N,/INT1_A/G*%
X50673000Y-153670002D03*
X58166000Y-153670000D03*
%TO.N,/D-*%
X80009982Y-155067000D03*
%TD*%
D27*
%TO.N,/~RST*%
X74280000Y-164450000D02*
X77850000Y-164450000D01*
X82296000Y-161163000D02*
X84850000Y-158609000D01*
X70574969Y-160744969D02*
X74280000Y-164450000D01*
X70574969Y-156600000D02*
X70574969Y-160744969D01*
X84850000Y-158609000D02*
X84850000Y-154550000D01*
X80137000Y-161163000D02*
X82296000Y-161163000D01*
X79248000Y-162052000D02*
X80137000Y-161163000D01*
X79248000Y-163052000D02*
X79248000Y-162052000D01*
X77850000Y-164450000D02*
X79248000Y-163052000D01*
X40000000Y-141600000D02*
X40000000Y-140711000D01*
X40000000Y-140711000D02*
X38455599Y-139166599D01*
X38455599Y-139166599D02*
X37592000Y-138303000D01*
D28*
%TO.N,+3V3*%
X66147000Y-161544000D02*
X67691000Y-161544000D01*
X67691000Y-161544000D02*
X67945000Y-161290000D01*
X67945000Y-159766000D02*
X67945000Y-161290000D01*
X66147000Y-159766000D02*
X67945000Y-159766000D01*
X46850000Y-154200000D02*
X41200000Y-154200000D01*
X48550000Y-155900000D02*
X46850000Y-154200000D01*
X40000000Y-153000000D02*
X40000000Y-144300000D01*
X41200000Y-154200000D02*
X40000000Y-153000000D01*
X48949999Y-156299999D02*
X48550000Y-155900000D01*
X56200000Y-159000000D02*
X51650000Y-159000000D01*
X51650000Y-159000000D02*
X48949999Y-156299999D01*
%TO.N,VCC*%
X54650000Y-137704000D02*
X55118000Y-137236000D01*
X54650000Y-140549000D02*
X54650000Y-137704000D01*
X54007000Y-141192000D02*
X54650000Y-140549000D01*
X52705000Y-141192000D02*
X54007000Y-141192000D01*
X55118000Y-137236000D02*
X55118000Y-135636000D01*
X36900000Y-147200000D02*
X35150000Y-145450000D01*
X36900000Y-156000000D02*
X36900000Y-147200000D01*
X39700000Y-158800000D02*
X36900000Y-156000000D01*
X30992000Y-133600000D02*
X32600000Y-133600000D01*
X35150000Y-145450000D02*
X31200000Y-145450000D01*
X29324989Y-143574989D02*
X29324989Y-135267011D01*
X31200000Y-145450000D02*
X29324989Y-143574989D01*
X29324989Y-135267011D02*
X30992000Y-133600000D01*
D27*
%TO.N,/MISO*%
X65380817Y-164870183D02*
X65380817Y-165456817D01*
X69725038Y-162813373D02*
X68038412Y-164499999D01*
X67675411Y-146939000D02*
X69725038Y-148988627D01*
X57037899Y-145340957D02*
X58635942Y-146939000D01*
X65751001Y-164499999D02*
X65380817Y-164870183D01*
X57037899Y-144904363D02*
X57037899Y-145340957D01*
X55118000Y-144489010D02*
X56622546Y-144489010D01*
X58635942Y-146939000D02*
X67675411Y-146939000D01*
X68038412Y-164499999D02*
X65751001Y-164499999D01*
X69725038Y-148988627D02*
X69725038Y-162813373D01*
X56622546Y-144489010D02*
X57037899Y-144904363D01*
X69723000Y-166243000D02*
X65532000Y-166243000D01*
X65532000Y-166243000D02*
X65380817Y-166091817D01*
X65380817Y-166091817D02*
X65380817Y-165456817D01*
X69723000Y-166243000D02*
X83058000Y-166243000D01*
X69725037Y-166240963D02*
X69723000Y-166243000D01*
X84530154Y-164770846D02*
X84530154Y-164135842D01*
X83058000Y-166243000D02*
X84530154Y-164770846D01*
X84530154Y-164135842D02*
X84816997Y-163848999D01*
X84816997Y-163848999D02*
X85216996Y-163449000D01*
%TO.N,/SCK*%
X68822978Y-161901702D02*
X67962340Y-162762340D01*
X65950000Y-148150000D02*
X67613590Y-148150000D01*
X68822978Y-149359388D02*
X68822978Y-161901702D01*
X67613590Y-148150000D02*
X68822978Y-149359388D01*
%TO.N,/MOSI*%
X67489011Y-147389011D02*
X58449543Y-147389011D01*
X69275027Y-149175027D02*
X67489011Y-147389011D01*
X69275027Y-162626973D02*
X69275027Y-149175027D01*
X65439011Y-164049989D02*
X67852011Y-164049989D01*
X56712897Y-145652365D02*
X56312898Y-145252366D01*
X64389000Y-165989000D02*
X64389000Y-165100000D01*
X67852011Y-164049989D02*
X69275027Y-162626973D01*
X64389000Y-165100000D02*
X65439011Y-164049989D01*
X58449543Y-147389011D02*
X56712897Y-145652365D01*
X85255155Y-164734262D02*
X83238417Y-166751000D01*
X64788999Y-166388999D02*
X64389000Y-165989000D01*
X83238417Y-166751000D02*
X65151000Y-166751000D01*
X65151000Y-166751000D02*
X64788999Y-166388999D01*
%TO.N,Net-(R1-Pad2)*%
X77500000Y-162900000D02*
X75300000Y-162900000D01*
X75300000Y-162900000D02*
X73000000Y-160600000D01*
%TO.N,/SDA*%
X44000298Y-152924978D02*
X47770389Y-152924978D01*
X59106000Y-155194000D02*
X61950000Y-152350000D01*
X62384315Y-152350000D02*
X62950000Y-152350000D01*
X61950000Y-152350000D02*
X62384315Y-152350000D01*
X50039410Y-155194000D02*
X59106000Y-155194000D01*
X47770389Y-152924978D02*
X50039410Y-155194000D01*
X42475165Y-151399845D02*
X44000298Y-152924978D01*
%TO.N,/SCL*%
X41700000Y-151650000D02*
X43424989Y-153374989D01*
X41700000Y-148200000D02*
X41700000Y-151650000D01*
X42300000Y-147600000D02*
X41700000Y-148200000D01*
X49853011Y-155644011D02*
X59748670Y-155644011D01*
X47583989Y-153374989D02*
X49853011Y-155644011D01*
X59748670Y-155644011D02*
X61805022Y-153587659D01*
X61805022Y-153587659D02*
X62205021Y-153187660D01*
X43424989Y-153374989D02*
X47583989Y-153374989D01*
D28*
%TO.N,+3V3*%
X40000000Y-144300000D02*
X38350000Y-144300000D01*
X38350000Y-144300000D02*
X36350000Y-142300000D01*
X36350000Y-142300000D02*
X35900000Y-142300000D01*
X40000000Y-144300000D02*
X42200000Y-144300000D01*
X31100000Y-142300000D02*
X35900000Y-142300000D01*
X45299000Y-147748000D02*
X45299000Y-146099000D01*
X45299000Y-146099000D02*
X43500000Y-144300000D01*
X43500000Y-144300000D02*
X42200000Y-144300000D01*
X47200000Y-147750000D02*
X45301000Y-147750000D01*
X45301000Y-147750000D02*
X45299000Y-147748000D01*
X65300000Y-156500000D02*
X66147000Y-157347000D01*
X66147000Y-157347000D02*
X66147000Y-159766000D01*
X59319000Y-156500000D02*
X65300000Y-156500000D01*
X58440000Y-157379000D02*
X59319000Y-156500000D01*
X58440000Y-159004000D02*
X58440000Y-157379000D01*
X56204000Y-159004000D02*
X56200000Y-159000000D01*
X58440000Y-159004000D02*
X56204000Y-159004000D01*
%TO.N,VCC*%
X42600000Y-158800000D02*
X44100000Y-158800000D01*
X41100000Y-158800000D02*
X42600000Y-158800000D01*
X39700000Y-158800000D02*
X41100000Y-158800000D01*
X32600000Y-133600000D02*
X33400000Y-133600000D01*
X32512000Y-133688000D02*
X32600000Y-133600000D01*
X32512000Y-135763000D02*
X32512000Y-133688000D01*
X42200000Y-135400000D02*
X40400000Y-133600000D01*
X42892000Y-141192000D02*
X42200000Y-140500000D01*
X42200000Y-140500000D02*
X42200000Y-135400000D01*
X40400000Y-133600000D02*
X33400000Y-133600000D01*
X45085000Y-141192000D02*
X42892000Y-141192000D01*
X81026000Y-159111000D02*
X80111000Y-159111000D01*
X80111000Y-159111000D02*
X78900000Y-157900000D01*
X78900000Y-157900000D02*
X78600000Y-157900000D01*
X77474660Y-161793340D02*
X77474660Y-158425340D01*
X78000000Y-157900000D02*
X78600000Y-157900000D01*
X77474660Y-158425340D02*
X78000000Y-157900000D01*
X78232000Y-147552000D02*
X78232000Y-144399000D01*
X78232000Y-144399000D02*
X81153000Y-141478000D01*
X79380000Y-148700000D02*
X78232000Y-147552000D01*
X80800000Y-148700000D02*
X79380000Y-148700000D01*
X81153000Y-135509000D02*
X79629000Y-133985000D01*
X81153000Y-141478000D02*
X81153000Y-135509000D01*
X79629000Y-133985000D02*
X74295000Y-133985000D01*
X48895000Y-141192000D02*
X52705000Y-141192000D01*
X45085000Y-141192000D02*
X48895000Y-141192000D01*
%TO.N,Net-(C17-Pad1)*%
X57658000Y-133477000D02*
X53721000Y-133477000D01*
X53721000Y-133477000D02*
X52705000Y-134493000D01*
X59817000Y-135636000D02*
X57658000Y-133477000D01*
X52705000Y-134493000D02*
X52705000Y-137192000D01*
X60960000Y-135636000D02*
X59817000Y-135636000D01*
D29*
%TO.N,Net-(D1-Pad1)*%
X74295000Y-138985000D02*
X74295000Y-136525000D01*
%TO.N,Net-(D2-Pad1)*%
X71755000Y-138985000D02*
X71755000Y-136525000D01*
%TO.N,Net-(D3-Pad1)*%
X69215000Y-138985000D02*
X69215000Y-136525000D01*
%TO.N,Net-(D4-Pad1)*%
X66675000Y-138985000D02*
X66675000Y-136525000D01*
D28*
%TO.N,Net-(D5-Pad2)*%
X58500000Y-142350000D02*
X55900000Y-142350000D01*
X45085000Y-137192000D02*
X45085000Y-133985000D01*
%TO.N,Net-(D7-Pad2)*%
X58500000Y-138800000D02*
X56200000Y-138800000D01*
X56200000Y-138800000D02*
X55900006Y-138800000D01*
X48895000Y-137192000D02*
X48895000Y-135255000D01*
X48895000Y-135255000D02*
X47625000Y-133985000D01*
%TO.N,Net-(J2-Pad2)*%
X41148000Y-156210000D02*
X40259000Y-156210000D01*
X42037000Y-156210000D02*
X41148000Y-156210000D01*
X42926000Y-156210000D02*
X42037000Y-156210000D01*
X43815000Y-156210000D02*
X42926000Y-156210000D01*
X44704000Y-156210000D02*
X43815000Y-156210000D01*
X50800000Y-165100000D02*
X50800000Y-162306000D01*
X50800000Y-162306000D02*
X44704000Y-156210000D01*
D29*
%TO.N,Net-(R6-Pad2)*%
X72931000Y-145128000D02*
X74295000Y-143764000D01*
X74295000Y-143764000D02*
X74295000Y-141685000D01*
X68072000Y-145128000D02*
X72931000Y-145128000D01*
%TO.N,Net-(R7-Pad2)*%
X71306990Y-143831010D02*
X71755000Y-143383000D01*
X67115990Y-143831010D02*
X71306990Y-143831010D01*
X66802000Y-144145000D02*
X67115990Y-143831010D01*
X66802000Y-145128000D02*
X66802000Y-144145000D01*
X71755000Y-143383000D02*
X71755000Y-141685000D01*
%TO.N,Net-(R8-Pad2)*%
X66675000Y-143002000D02*
X65532000Y-144145000D01*
X68961000Y-143002000D02*
X66675000Y-143002000D01*
X69215000Y-142748000D02*
X68961000Y-143002000D01*
X69215000Y-141685000D02*
X69215000Y-142748000D01*
X65532000Y-144145000D02*
X65532000Y-145128000D01*
%TO.N,Net-(R9-Pad2)*%
X45299000Y-150448000D02*
X45299000Y-151892000D01*
X45299000Y-151892000D02*
X45553000Y-152146000D01*
%TO.N,Net-(R10-Pad2)*%
X64262000Y-145128000D02*
X64262000Y-144098000D01*
X64262000Y-144098000D02*
X66675000Y-141685000D01*
%TO.N,/MOTOR_ERR*%
X46000000Y-166142000D02*
X46332988Y-166474988D01*
X60940315Y-165433961D02*
X61340314Y-165033962D01*
X59899288Y-166474988D02*
X60940315Y-165433961D01*
X46000000Y-163900000D02*
X46000000Y-166142000D01*
X46332988Y-166474988D02*
X59899288Y-166474988D01*
D27*
%TO.N,/FL_LED*%
X68072000Y-150528000D02*
X68072000Y-154686004D01*
X68072000Y-154686004D02*
X67945000Y-154813004D01*
%TO.N,/FR_LED*%
X66802000Y-150528000D02*
X66802000Y-154812992D01*
X66802000Y-154812992D02*
X66801992Y-154813000D01*
%TO.N,/BL_LED*%
X65532000Y-150528000D02*
X65532000Y-153035000D01*
X65532000Y-153035000D02*
X65278000Y-153289000D01*
D30*
%TO.N,/BR_LED*%
X64262000Y-152908000D02*
X64262000Y-152342315D01*
X64262000Y-152342315D02*
X64262000Y-150528000D01*
D27*
%TO.N,/INT1_A/G*%
X58166000Y-153670000D02*
X50673002Y-153670000D01*
X50673002Y-153670000D02*
X50673000Y-153670002D01*
%TO.N,/D-*%
X81800000Y-149350000D02*
X82804000Y-150354000D01*
X82804000Y-150354000D02*
X82804000Y-154051000D01*
X82804000Y-154051000D02*
X81788000Y-155067000D01*
X80575667Y-155067000D02*
X80009982Y-155067000D01*
X81788000Y-155067000D02*
X80575667Y-155067000D01*
%TD*%
D31*
%TO.N,GND*%
G36*
X86519000Y-150000000D02*
X86544000Y-150125683D01*
X86544000Y-167544000D01*
X27481000Y-167544000D01*
X27481000Y-135267011D01*
X28443989Y-135267011D01*
X28443989Y-143574989D01*
X28511051Y-143912133D01*
X28702028Y-144197950D01*
X30577039Y-146072961D01*
X30862856Y-146263938D01*
X31200000Y-146331000D01*
X34785078Y-146331000D01*
X36019000Y-147564922D01*
X36019000Y-156000000D01*
X36086062Y-156337144D01*
X36277039Y-156622961D01*
X39077039Y-159422961D01*
X39362856Y-159613938D01*
X39700000Y-159681000D01*
X44100000Y-159681000D01*
X44437144Y-159613938D01*
X44722961Y-159422961D01*
X44913938Y-159137144D01*
X44981000Y-158800000D01*
X44913938Y-158462856D01*
X44722961Y-158177039D01*
X44437144Y-157986062D01*
X44100000Y-157919000D01*
X40064922Y-157919000D01*
X38355922Y-156210000D01*
X39378000Y-156210000D01*
X39445062Y-156547144D01*
X39636039Y-156832961D01*
X39921856Y-157023938D01*
X40259000Y-157091000D01*
X44339078Y-157091000D01*
X49919000Y-162670922D01*
X49919000Y-164221227D01*
X49662704Y-164604800D01*
X49569000Y-165075883D01*
X49569000Y-165124117D01*
X49662704Y-165595200D01*
X49828939Y-165843988D01*
X49498464Y-165843988D01*
X49498464Y-164250000D01*
X49468894Y-164101341D01*
X49384686Y-163975314D01*
X49258659Y-163891106D01*
X49110000Y-163861536D01*
X47410000Y-163861536D01*
X47261341Y-163891106D01*
X47135314Y-163975314D01*
X47051106Y-164101341D01*
X47021536Y-164250000D01*
X47021536Y-165843988D01*
X46631000Y-165843988D01*
X46631000Y-164373639D01*
X46661714Y-164342979D01*
X46780864Y-164056032D01*
X46781136Y-163745331D01*
X46662486Y-163458177D01*
X46442979Y-163238286D01*
X46156032Y-163119136D01*
X45845331Y-163118864D01*
X45558177Y-163237514D01*
X45338286Y-163457021D01*
X45219136Y-163743968D01*
X45218864Y-164054669D01*
X45337514Y-164341823D01*
X45369000Y-164373364D01*
X45369000Y-166142000D01*
X45411392Y-166355117D01*
X45417032Y-166383473D01*
X45553816Y-166588184D01*
X45886804Y-166921172D01*
X46091514Y-167057956D01*
X46131577Y-167065925D01*
X46332988Y-167105988D01*
X59899288Y-167105988D01*
X60140761Y-167057956D01*
X60345472Y-166921172D01*
X61386500Y-165880145D01*
X61386502Y-165880142D01*
X61451584Y-165815060D01*
X61494983Y-165815098D01*
X61782137Y-165696448D01*
X62002028Y-165476941D01*
X62121178Y-165189994D01*
X62121450Y-164879293D01*
X62002800Y-164592139D01*
X61783293Y-164372248D01*
X61496346Y-164253098D01*
X61185645Y-164252826D01*
X60898491Y-164371476D01*
X60678600Y-164590983D01*
X60559450Y-164877930D01*
X60559411Y-164922497D01*
X60494134Y-164987774D01*
X60494131Y-164987776D01*
X59637920Y-165843988D01*
X51771061Y-165843988D01*
X51937296Y-165595200D01*
X52031000Y-165124117D01*
X52031000Y-165075883D01*
X51937296Y-164604800D01*
X51681000Y-164221227D01*
X51681000Y-162306000D01*
X51613938Y-161968856D01*
X51520991Y-161829750D01*
X62262000Y-161829750D01*
X62262000Y-162295310D01*
X62358673Y-162528699D01*
X62537302Y-162707327D01*
X62770691Y-162804000D01*
X63361250Y-162804000D01*
X63520000Y-162645250D01*
X63520000Y-161671000D01*
X62420750Y-161671000D01*
X62262000Y-161829750D01*
X51520991Y-161829750D01*
X51422961Y-161683039D01*
X45326961Y-155587039D01*
X45041144Y-155396062D01*
X44704000Y-155329000D01*
X40259000Y-155329000D01*
X39921856Y-155396062D01*
X39636039Y-155587039D01*
X39445062Y-155872856D01*
X39378000Y-156210000D01*
X38355922Y-156210000D01*
X37781000Y-155635078D01*
X37781000Y-147200000D01*
X37713938Y-146862856D01*
X37522961Y-146577039D01*
X35772961Y-144827039D01*
X35487144Y-144636062D01*
X35150000Y-144569000D01*
X31564922Y-144569000D01*
X30205989Y-143210067D01*
X30205989Y-142300000D01*
X30219000Y-142300000D01*
X30286062Y-142637144D01*
X30477039Y-142922961D01*
X30762856Y-143113938D01*
X31100000Y-143181000D01*
X35985078Y-143181000D01*
X37727039Y-144922961D01*
X38012856Y-145113938D01*
X38350000Y-145181000D01*
X38987593Y-145181000D01*
X38991106Y-145198659D01*
X39075314Y-145324686D01*
X39119000Y-145353876D01*
X39119000Y-153000000D01*
X39186062Y-153337144D01*
X39377039Y-153622961D01*
X40577039Y-154822961D01*
X40862856Y-155013938D01*
X41200000Y-155081000D01*
X46485078Y-155081000D01*
X51027039Y-159622961D01*
X51312856Y-159813938D01*
X51650000Y-159881000D01*
X56183891Y-159881000D01*
X56204000Y-159885000D01*
X57402828Y-159885000D01*
X57415314Y-159903686D01*
X57541341Y-159987894D01*
X57690000Y-160017464D01*
X59190000Y-160017464D01*
X59338659Y-159987894D01*
X59464686Y-159903686D01*
X59548894Y-159777659D01*
X59555000Y-159746962D01*
X59555000Y-159755310D01*
X59651673Y-159988699D01*
X59830302Y-160167327D01*
X60063691Y-160264000D01*
X60654250Y-160264000D01*
X60813000Y-160105250D01*
X60813000Y-159131000D01*
X60793000Y-159131000D01*
X60793000Y-158877000D01*
X60813000Y-158877000D01*
X60813000Y-157902750D01*
X61067000Y-157902750D01*
X61067000Y-158877000D01*
X61087000Y-158877000D01*
X61087000Y-159131000D01*
X61067000Y-159131000D01*
X61067000Y-160105250D01*
X61225750Y-160264000D01*
X61816309Y-160264000D01*
X62049698Y-160167327D01*
X62228327Y-159988699D01*
X62267966Y-159893002D01*
X62420748Y-159893002D01*
X62262000Y-160051750D01*
X62262000Y-160517310D01*
X62319033Y-160655000D01*
X62262000Y-160792690D01*
X62262000Y-161258250D01*
X62420750Y-161417000D01*
X63520000Y-161417000D01*
X63520000Y-159893000D01*
X63500000Y-159893000D01*
X63500000Y-159639000D01*
X63520000Y-159639000D01*
X63520000Y-158664750D01*
X63361250Y-158506000D01*
X62770691Y-158506000D01*
X62537302Y-158602673D01*
X62358673Y-158781301D01*
X62319034Y-158876998D01*
X62166252Y-158876998D01*
X62325000Y-158718250D01*
X62325000Y-158252690D01*
X62228327Y-158019301D01*
X62049698Y-157840673D01*
X61816309Y-157744000D01*
X61225750Y-157744000D01*
X61067000Y-157902750D01*
X60813000Y-157902750D01*
X60654250Y-157744000D01*
X60063691Y-157744000D01*
X59830302Y-157840673D01*
X59651673Y-158019301D01*
X59555000Y-158252690D01*
X59555000Y-158261038D01*
X59548894Y-158230341D01*
X59464686Y-158104314D01*
X59338659Y-158020106D01*
X59321000Y-158016593D01*
X59321000Y-157743922D01*
X59683922Y-157381000D01*
X64935078Y-157381000D01*
X65266000Y-157711922D01*
X65266000Y-158778593D01*
X65248341Y-158782106D01*
X65122314Y-158866314D01*
X65038106Y-158992341D01*
X65032000Y-159023038D01*
X65032000Y-159014690D01*
X64935327Y-158781301D01*
X64756698Y-158602673D01*
X64523309Y-158506000D01*
X63932750Y-158506000D01*
X63774000Y-158664750D01*
X63774000Y-159639000D01*
X63794000Y-159639000D01*
X63794000Y-159893000D01*
X63774000Y-159893000D01*
X63774000Y-161417000D01*
X63794000Y-161417000D01*
X63794000Y-161671000D01*
X63774000Y-161671000D01*
X63774000Y-162645250D01*
X63932750Y-162804000D01*
X64523309Y-162804000D01*
X64756698Y-162707327D01*
X64935327Y-162528699D01*
X65032000Y-162295310D01*
X65032000Y-162286962D01*
X65038106Y-162317659D01*
X65122314Y-162443686D01*
X65248341Y-162527894D01*
X65397000Y-162557464D01*
X66897000Y-162557464D01*
X67045659Y-162527894D01*
X67171686Y-162443686D01*
X67184172Y-162425000D01*
X67256761Y-162425000D01*
X67181476Y-162606308D01*
X67181204Y-162917009D01*
X67299854Y-163204163D01*
X67519361Y-163424054D01*
X67691059Y-163495349D01*
X67642419Y-163543989D01*
X65439011Y-163543989D01*
X65245373Y-163582506D01*
X65081215Y-163692193D01*
X64031204Y-164742204D01*
X63921517Y-164906362D01*
X63883000Y-165100000D01*
X63883000Y-165390579D01*
X63727286Y-165546021D01*
X63608136Y-165832968D01*
X63607864Y-166143669D01*
X63726514Y-166430823D01*
X63946021Y-166650714D01*
X64232968Y-166769864D01*
X64454466Y-166770058D01*
X64793204Y-167108796D01*
X64957362Y-167218483D01*
X65151000Y-167257000D01*
X83238417Y-167257000D01*
X83432055Y-167218483D01*
X83596213Y-167108796D01*
X85189804Y-165515205D01*
X85409824Y-165515398D01*
X85696978Y-165396748D01*
X85916869Y-165177241D01*
X86036019Y-164890294D01*
X86036291Y-164579593D01*
X85917641Y-164292439D01*
X85698134Y-164072548D01*
X85697916Y-164072457D01*
X85878710Y-163891979D01*
X85997860Y-163605032D01*
X85998132Y-163294331D01*
X85879482Y-163007177D01*
X85659975Y-162787286D01*
X85373028Y-162668136D01*
X85062327Y-162667864D01*
X84775173Y-162786514D01*
X84555282Y-163006021D01*
X84436132Y-163292968D01*
X84435938Y-163514466D01*
X84172358Y-163778046D01*
X84062671Y-163942204D01*
X84024154Y-164135842D01*
X84024154Y-164561254D01*
X82848408Y-165737000D01*
X69735278Y-165737000D01*
X69725037Y-165734963D01*
X69714796Y-165737000D01*
X66110129Y-165737000D01*
X66161681Y-165612849D01*
X66161953Y-165302148D01*
X66043303Y-165014994D01*
X66034324Y-165005999D01*
X68038412Y-165005999D01*
X68232050Y-164967482D01*
X68396208Y-164857795D01*
X70082834Y-163171169D01*
X70192521Y-163007011D01*
X70231038Y-162813373D01*
X70231038Y-161116630D01*
X73922204Y-164807796D01*
X74086362Y-164917483D01*
X74280000Y-164956000D01*
X77850000Y-164956000D01*
X78043638Y-164917483D01*
X78207796Y-164807796D01*
X79605796Y-163409796D01*
X79650428Y-163342999D01*
X79715483Y-163245638D01*
X79754000Y-163052000D01*
X79754000Y-162261592D01*
X80346592Y-161669000D01*
X82296000Y-161669000D01*
X82489638Y-161630483D01*
X82653796Y-161520796D01*
X85207796Y-158966796D01*
X85317483Y-158802638D01*
X85356000Y-158609000D01*
X85356000Y-155148421D01*
X85511714Y-154992979D01*
X85630864Y-154706032D01*
X85631136Y-154395331D01*
X85512486Y-154108177D01*
X85292979Y-153888286D01*
X85006032Y-153769136D01*
X84695331Y-153768864D01*
X84408177Y-153887514D01*
X84188286Y-154107021D01*
X84069136Y-154393968D01*
X84068864Y-154704669D01*
X84187514Y-154991823D01*
X84344000Y-155148583D01*
X84344000Y-158399408D01*
X82086408Y-160657000D01*
X80137000Y-160657000D01*
X79943362Y-160695517D01*
X79779204Y-160805204D01*
X78890204Y-161694204D01*
X78780517Y-161858362D01*
X78742000Y-162052000D01*
X78742000Y-162842408D01*
X77640408Y-163944000D01*
X74489592Y-163944000D01*
X71300261Y-160754669D01*
X72218864Y-160754669D01*
X72337514Y-161041823D01*
X72557021Y-161261714D01*
X72843968Y-161380864D01*
X73065466Y-161381058D01*
X74942204Y-163257796D01*
X75106362Y-163367483D01*
X75300000Y-163406000D01*
X76901579Y-163406000D01*
X77057021Y-163561714D01*
X77343968Y-163680864D01*
X77654669Y-163681136D01*
X77941823Y-163562486D01*
X78161714Y-163342979D01*
X78280864Y-163056032D01*
X78281136Y-162745331D01*
X78162486Y-162458177D01*
X78106868Y-162402462D01*
X78288598Y-162130484D01*
X78355660Y-161793340D01*
X78355660Y-158790262D01*
X78364922Y-158781000D01*
X78535078Y-158781000D01*
X79488039Y-159733961D01*
X79773856Y-159924938D01*
X80035611Y-159977004D01*
X80042106Y-160009659D01*
X80126314Y-160135686D01*
X80252341Y-160219894D01*
X80401000Y-160249464D01*
X81651000Y-160249464D01*
X81799659Y-160219894D01*
X81925686Y-160135686D01*
X82009894Y-160009659D01*
X82039464Y-159861000D01*
X82039464Y-158361000D01*
X82009894Y-158212341D01*
X81925686Y-158086314D01*
X81799659Y-158002106D01*
X81768962Y-157996000D01*
X81777310Y-157996000D01*
X82010699Y-157899327D01*
X82189327Y-157720698D01*
X82286000Y-157487309D01*
X82286000Y-156896750D01*
X82127250Y-156738000D01*
X81153000Y-156738000D01*
X81153000Y-156758000D01*
X80899000Y-156758000D01*
X80899000Y-156738000D01*
X79924750Y-156738000D01*
X79766000Y-156896750D01*
X79766000Y-157487309D01*
X79789171Y-157543249D01*
X79522961Y-157277039D01*
X79237144Y-157086062D01*
X78900000Y-157019000D01*
X78000000Y-157019000D01*
X77662856Y-157086062D01*
X77377039Y-157277039D01*
X76851699Y-157802379D01*
X76660722Y-158088196D01*
X76593660Y-158425340D01*
X76593660Y-161793340D01*
X76660722Y-162130484D01*
X76836798Y-162394000D01*
X75509592Y-162394000D01*
X73780943Y-160665351D01*
X73781136Y-160445331D01*
X73662486Y-160158177D01*
X73442979Y-159938286D01*
X73156032Y-159819136D01*
X72845331Y-159818864D01*
X72558177Y-159937514D01*
X72338286Y-160157021D01*
X72219136Y-160443968D01*
X72218864Y-160754669D01*
X71300261Y-160754669D01*
X71080969Y-160535377D01*
X71080969Y-157198421D01*
X71236683Y-157042979D01*
X71355833Y-156756032D01*
X71356105Y-156445331D01*
X71237455Y-156158177D01*
X71017948Y-155938286D01*
X70731001Y-155819136D01*
X70420300Y-155818864D01*
X70231038Y-155897066D01*
X70231038Y-151487100D01*
X70347512Y-151768989D01*
X71226384Y-152649396D01*
X72375272Y-153126456D01*
X73619270Y-153127542D01*
X74768989Y-152652488D01*
X74945039Y-152476744D01*
X80101349Y-152476744D01*
X81020000Y-153395395D01*
X81938651Y-152476744D01*
X81849179Y-152217668D01*
X81351902Y-152034998D01*
X81352308Y-152031913D01*
X80800000Y-151479605D01*
X80247692Y-152031913D01*
X80267925Y-152185730D01*
X80190821Y-152217668D01*
X80101349Y-152476744D01*
X74945039Y-152476744D01*
X75649396Y-151773616D01*
X75898321Y-151174137D01*
X79731721Y-151174137D01*
X79764873Y-151592531D01*
X79861204Y-151825095D01*
X80068087Y-151852308D01*
X80620395Y-151300000D01*
X80068087Y-150747692D01*
X79861204Y-150774905D01*
X79731721Y-151174137D01*
X75898321Y-151174137D01*
X76126456Y-150624728D01*
X76127542Y-149380730D01*
X75652488Y-148231011D01*
X74773616Y-147350604D01*
X73624728Y-146873544D01*
X72380730Y-146872458D01*
X71231011Y-147347512D01*
X70350604Y-148226384D01*
X70144402Y-148722974D01*
X70082834Y-148630831D01*
X68033207Y-146581204D01*
X67869049Y-146471517D01*
X67675411Y-146433000D01*
X58845534Y-146433000D01*
X57543899Y-145131365D01*
X57543899Y-144904363D01*
X57505382Y-144710725D01*
X57395695Y-144546567D01*
X57227128Y-144378000D01*
X58493536Y-144378000D01*
X58493536Y-145878000D01*
X58523106Y-146026659D01*
X58607314Y-146152686D01*
X58733341Y-146236894D01*
X58882000Y-146266464D01*
X59482000Y-146266464D01*
X59630659Y-146236894D01*
X59756686Y-146152686D01*
X59817000Y-146062419D01*
X59877314Y-146152686D01*
X60003341Y-146236894D01*
X60152000Y-146266464D01*
X60752000Y-146266464D01*
X60900659Y-146236894D01*
X61026686Y-146152686D01*
X61087000Y-146062419D01*
X61147314Y-146152686D01*
X61273341Y-146236894D01*
X61422000Y-146266464D01*
X62022000Y-146266464D01*
X62170659Y-146236894D01*
X62296686Y-146152686D01*
X62357000Y-146062419D01*
X62417314Y-146152686D01*
X62543341Y-146236894D01*
X62692000Y-146266464D01*
X63292000Y-146266464D01*
X63440659Y-146236894D01*
X63566686Y-146152686D01*
X63627000Y-146062419D01*
X63687314Y-146152686D01*
X63813341Y-146236894D01*
X63962000Y-146266464D01*
X64562000Y-146266464D01*
X64710659Y-146236894D01*
X64836686Y-146152686D01*
X64897000Y-146062419D01*
X64957314Y-146152686D01*
X65083341Y-146236894D01*
X65232000Y-146266464D01*
X65832000Y-146266464D01*
X65980659Y-146236894D01*
X66106686Y-146152686D01*
X66167000Y-146062419D01*
X66227314Y-146152686D01*
X66353341Y-146236894D01*
X66502000Y-146266464D01*
X67102000Y-146266464D01*
X67250659Y-146236894D01*
X67376686Y-146152686D01*
X67437000Y-146062419D01*
X67497314Y-146152686D01*
X67623341Y-146236894D01*
X67772000Y-146266464D01*
X68372000Y-146266464D01*
X68520659Y-146236894D01*
X68646686Y-146152686D01*
X68730894Y-146026659D01*
X68760464Y-145878000D01*
X68760464Y-145759000D01*
X72931000Y-145759000D01*
X73172473Y-145710968D01*
X73377184Y-145574184D01*
X74741184Y-144210185D01*
X74877968Y-144005474D01*
X74898246Y-143903527D01*
X74926000Y-143764000D01*
X74926000Y-142823464D01*
X74945000Y-142823464D01*
X75093659Y-142793894D01*
X75219686Y-142709686D01*
X75303894Y-142583659D01*
X75333464Y-142435000D01*
X75333464Y-141402532D01*
X76777073Y-141402532D01*
X76875736Y-141669387D01*
X77485461Y-141895908D01*
X78135460Y-141871856D01*
X78624264Y-141669387D01*
X78722927Y-141402532D01*
X77750000Y-140429605D01*
X76777073Y-141402532D01*
X75333464Y-141402532D01*
X75333464Y-140935000D01*
X75303894Y-140786341D01*
X75219686Y-140660314D01*
X75093659Y-140576106D01*
X74945000Y-140546536D01*
X73645000Y-140546536D01*
X73496341Y-140576106D01*
X73370314Y-140660314D01*
X73286106Y-140786341D01*
X73256536Y-140935000D01*
X73256536Y-142435000D01*
X73286106Y-142583659D01*
X73370314Y-142709686D01*
X73496341Y-142793894D01*
X73645000Y-142823464D01*
X73664000Y-142823464D01*
X73664000Y-143502631D01*
X72669632Y-144497000D01*
X68760464Y-144497000D01*
X68760464Y-144462010D01*
X71306990Y-144462010D01*
X71548463Y-144413978D01*
X71753174Y-144277194D01*
X72201185Y-143829184D01*
X72337968Y-143624473D01*
X72386000Y-143383000D01*
X72386000Y-142823464D01*
X72405000Y-142823464D01*
X72553659Y-142793894D01*
X72679686Y-142709686D01*
X72763894Y-142583659D01*
X72793464Y-142435000D01*
X72793464Y-140935000D01*
X72763894Y-140786341D01*
X72679686Y-140660314D01*
X72553659Y-140576106D01*
X72405000Y-140546536D01*
X71105000Y-140546536D01*
X70956341Y-140576106D01*
X70830314Y-140660314D01*
X70746106Y-140786341D01*
X70716536Y-140935000D01*
X70716536Y-142435000D01*
X70746106Y-142583659D01*
X70830314Y-142709686D01*
X70956341Y-142793894D01*
X71105000Y-142823464D01*
X71124000Y-142823464D01*
X71124000Y-143121631D01*
X71045622Y-143200010D01*
X69655359Y-143200010D01*
X69661184Y-143194185D01*
X69797968Y-142989474D01*
X69811198Y-142922961D01*
X69830989Y-142823464D01*
X69865000Y-142823464D01*
X70013659Y-142793894D01*
X70139686Y-142709686D01*
X70223894Y-142583659D01*
X70253464Y-142435000D01*
X70253464Y-140935000D01*
X70223894Y-140786341D01*
X70139686Y-140660314D01*
X70013659Y-140576106D01*
X69865000Y-140546536D01*
X68565000Y-140546536D01*
X68416341Y-140576106D01*
X68290314Y-140660314D01*
X68206106Y-140786341D01*
X68176536Y-140935000D01*
X68176536Y-142371000D01*
X67713464Y-142371000D01*
X67713464Y-140935000D01*
X67683894Y-140786341D01*
X67599686Y-140660314D01*
X67473659Y-140576106D01*
X67325000Y-140546536D01*
X66025000Y-140546536D01*
X65876341Y-140576106D01*
X65750314Y-140660314D01*
X65666106Y-140786341D01*
X65636536Y-140935000D01*
X65636536Y-141831095D01*
X64385000Y-143082632D01*
X64385000Y-142635750D01*
X64226250Y-142477000D01*
X62627000Y-142477000D01*
X62627000Y-143726250D01*
X62785750Y-143885000D01*
X63673368Y-143885000D01*
X63631000Y-144098000D01*
X63631000Y-144187594D01*
X63627000Y-144193581D01*
X63566686Y-144103314D01*
X63440659Y-144019106D01*
X63292000Y-143989536D01*
X62692000Y-143989536D01*
X62543341Y-144019106D01*
X62417314Y-144103314D01*
X62357000Y-144193581D01*
X62296686Y-144103314D01*
X62170659Y-144019106D01*
X62022000Y-143989536D01*
X61422000Y-143989536D01*
X61273341Y-144019106D01*
X61147314Y-144103314D01*
X61087000Y-144193581D01*
X61026686Y-144103314D01*
X60900659Y-144019106D01*
X60752000Y-143989536D01*
X60152000Y-143989536D01*
X60003341Y-144019106D01*
X59877314Y-144103314D01*
X59817000Y-144193581D01*
X59756686Y-144103314D01*
X59630659Y-144019106D01*
X59482000Y-143989536D01*
X58882000Y-143989536D01*
X58733341Y-144019106D01*
X58607314Y-144103314D01*
X58523106Y-144229341D01*
X58493536Y-144378000D01*
X57227128Y-144378000D01*
X56980342Y-144131214D01*
X56816184Y-144021527D01*
X56622546Y-143983010D01*
X55716421Y-143983010D01*
X55560979Y-143827296D01*
X55274032Y-143708146D01*
X54963331Y-143707874D01*
X54676177Y-143826524D01*
X54456286Y-144046031D01*
X54337136Y-144332978D01*
X54336864Y-144643679D01*
X54455514Y-144930833D01*
X54675021Y-145150724D01*
X54961968Y-145269874D01*
X55272669Y-145270146D01*
X55531976Y-145163002D01*
X55531762Y-145407035D01*
X55650412Y-145694189D01*
X55869919Y-145914080D01*
X56156866Y-146033230D01*
X56378364Y-146033424D01*
X58091747Y-147746807D01*
X58255905Y-147856494D01*
X58449543Y-147895011D01*
X65210226Y-147895011D01*
X65169136Y-147993968D01*
X65168864Y-148304669D01*
X65287514Y-148591823D01*
X65507021Y-148811714D01*
X65793968Y-148930864D01*
X66104669Y-148931136D01*
X66391823Y-148812486D01*
X66548583Y-148656000D01*
X67403998Y-148656000D01*
X68137534Y-149389536D01*
X67772000Y-149389536D01*
X67623341Y-149419106D01*
X67497314Y-149503314D01*
X67437000Y-149593581D01*
X67376686Y-149503314D01*
X67250659Y-149419106D01*
X67102000Y-149389536D01*
X66502000Y-149389536D01*
X66353341Y-149419106D01*
X66227314Y-149503314D01*
X66167000Y-149593581D01*
X66106686Y-149503314D01*
X65980659Y-149419106D01*
X65832000Y-149389536D01*
X65232000Y-149389536D01*
X65083341Y-149419106D01*
X64957314Y-149503314D01*
X64897000Y-149593581D01*
X64836686Y-149503314D01*
X64710659Y-149419106D01*
X64562000Y-149389536D01*
X63962000Y-149389536D01*
X63828179Y-149416154D01*
X63651699Y-149239673D01*
X63418310Y-149143000D01*
X63277750Y-149143000D01*
X63119000Y-149301750D01*
X63119000Y-150401000D01*
X63139000Y-150401000D01*
X63139000Y-150655000D01*
X63119000Y-150655000D01*
X63119000Y-150675000D01*
X62865000Y-150675000D01*
X62865000Y-150655000D01*
X61849000Y-150655000D01*
X61849000Y-150675000D01*
X61595000Y-150675000D01*
X61595000Y-150655000D01*
X60579000Y-150655000D01*
X60579000Y-151754250D01*
X60737750Y-151913000D01*
X60878310Y-151913000D01*
X61087000Y-151826558D01*
X61295690Y-151913000D01*
X61436250Y-151913000D01*
X61594998Y-151754252D01*
X61594998Y-151913000D01*
X61710741Y-151913000D01*
X61592204Y-151992204D01*
X58896408Y-154688000D01*
X50249002Y-154688000D01*
X49385674Y-153824671D01*
X49891864Y-153824671D01*
X50010514Y-154111825D01*
X50230021Y-154331716D01*
X50516968Y-154450866D01*
X50827669Y-154451138D01*
X51114823Y-154332488D01*
X51271585Y-154176000D01*
X57567579Y-154176000D01*
X57723021Y-154331714D01*
X58009968Y-154450864D01*
X58320669Y-154451136D01*
X58607823Y-154332486D01*
X58827714Y-154112979D01*
X58946864Y-153826032D01*
X58947136Y-153515331D01*
X58828486Y-153228177D01*
X58608979Y-153008286D01*
X58322032Y-152889136D01*
X58011331Y-152888864D01*
X57724177Y-153007514D01*
X57567417Y-153164000D01*
X51271419Y-153164000D01*
X51115979Y-153008288D01*
X50829032Y-152889138D01*
X50518331Y-152888866D01*
X50231177Y-153007516D01*
X50011286Y-153227023D01*
X49892136Y-153513970D01*
X49891864Y-153824671D01*
X49385674Y-153824671D01*
X48128185Y-152567182D01*
X47964027Y-152457495D01*
X47770389Y-152418978D01*
X46285304Y-152418978D01*
X46333864Y-152302032D01*
X46334136Y-151991331D01*
X46215486Y-151704177D01*
X46073298Y-151561740D01*
X46097659Y-151556894D01*
X46179311Y-151502336D01*
X46215301Y-151538327D01*
X46448690Y-151635000D01*
X46914250Y-151635000D01*
X47073000Y-151476250D01*
X47073000Y-150377000D01*
X47327000Y-150377000D01*
X47327000Y-151476250D01*
X47485750Y-151635000D01*
X47951310Y-151635000D01*
X48184699Y-151538327D01*
X48363327Y-151359698D01*
X48460000Y-151126309D01*
X48460000Y-150619270D01*
X50872458Y-150619270D01*
X51347512Y-151768989D01*
X52226384Y-152649396D01*
X53375272Y-153126456D01*
X54619270Y-153127542D01*
X55768989Y-152652488D01*
X56649396Y-151773616D01*
X57047967Y-150813750D01*
X58247000Y-150813750D01*
X58247000Y-151404309D01*
X58343673Y-151637698D01*
X58522301Y-151816327D01*
X58755690Y-151913000D01*
X58896250Y-151913000D01*
X59055000Y-151754250D01*
X59055000Y-150655000D01*
X59309000Y-150655000D01*
X59309000Y-151754250D01*
X59467750Y-151913000D01*
X59608310Y-151913000D01*
X59817000Y-151826558D01*
X60025690Y-151913000D01*
X60166250Y-151913000D01*
X60325000Y-151754250D01*
X60325000Y-150655000D01*
X59309000Y-150655000D01*
X59055000Y-150655000D01*
X58405750Y-150655000D01*
X58247000Y-150813750D01*
X57047967Y-150813750D01*
X57126456Y-150624728D01*
X57127305Y-149651691D01*
X58247000Y-149651691D01*
X58247000Y-150242250D01*
X58405750Y-150401000D01*
X59055000Y-150401000D01*
X59055000Y-149301750D01*
X59309000Y-149301750D01*
X59309000Y-150401000D01*
X60325000Y-150401000D01*
X60325000Y-149301750D01*
X60579000Y-149301750D01*
X60579000Y-150401000D01*
X61595000Y-150401000D01*
X61595000Y-149301750D01*
X61849000Y-149301750D01*
X61849000Y-150401000D01*
X62865000Y-150401000D01*
X62865000Y-149301750D01*
X62706250Y-149143000D01*
X62565690Y-149143000D01*
X62357000Y-149229442D01*
X62148310Y-149143000D01*
X62007750Y-149143000D01*
X61849000Y-149301750D01*
X61595000Y-149301750D01*
X61436250Y-149143000D01*
X61295690Y-149143000D01*
X61087000Y-149229442D01*
X60878310Y-149143000D01*
X60737750Y-149143000D01*
X60579000Y-149301750D01*
X60325000Y-149301750D01*
X60166250Y-149143000D01*
X60025690Y-149143000D01*
X59817000Y-149229442D01*
X59608310Y-149143000D01*
X59467750Y-149143000D01*
X59309000Y-149301750D01*
X59055000Y-149301750D01*
X58896250Y-149143000D01*
X58755690Y-149143000D01*
X58522301Y-149239673D01*
X58343673Y-149418302D01*
X58247000Y-149651691D01*
X57127305Y-149651691D01*
X57127542Y-149380730D01*
X56652488Y-148231011D01*
X55773616Y-147350604D01*
X54624728Y-146873544D01*
X53380730Y-146872458D01*
X52231011Y-147347512D01*
X51350604Y-148226384D01*
X50873544Y-149375272D01*
X50872458Y-150619270D01*
X48460000Y-150619270D01*
X48460000Y-150535750D01*
X48301250Y-150377000D01*
X47327000Y-150377000D01*
X47073000Y-150377000D01*
X47053000Y-150377000D01*
X47053000Y-150123000D01*
X47073000Y-150123000D01*
X47073000Y-150103000D01*
X47327000Y-150103000D01*
X47327000Y-150123000D01*
X48301250Y-150123000D01*
X48460000Y-149964250D01*
X48460000Y-149373691D01*
X48363327Y-149140302D01*
X48184699Y-148961673D01*
X47951310Y-148865000D01*
X47942962Y-148865000D01*
X47973659Y-148858894D01*
X48099686Y-148774686D01*
X48183894Y-148648659D01*
X48213464Y-148500000D01*
X48213464Y-147000000D01*
X48183894Y-146851341D01*
X48099686Y-146725314D01*
X47973659Y-146641106D01*
X47825000Y-146611536D01*
X46575000Y-146611536D01*
X46426341Y-146641106D01*
X46300314Y-146725314D01*
X46262668Y-146781655D01*
X46223686Y-146723314D01*
X46180000Y-146694124D01*
X46180000Y-146099000D01*
X46112938Y-145761856D01*
X45921961Y-145476039D01*
X44122961Y-143677039D01*
X43837144Y-143486062D01*
X43500000Y-143419000D01*
X41012407Y-143419000D01*
X41008894Y-143401341D01*
X40924686Y-143275314D01*
X40798659Y-143191106D01*
X40650000Y-143161536D01*
X39350000Y-143161536D01*
X39201341Y-143191106D01*
X39075314Y-143275314D01*
X38991106Y-143401341D01*
X38987593Y-143419000D01*
X38714922Y-143419000D01*
X36972961Y-141677039D01*
X36687144Y-141486062D01*
X36350000Y-141419000D01*
X31100000Y-141419000D01*
X30762856Y-141486062D01*
X30477039Y-141677039D01*
X30286062Y-141962856D01*
X30219000Y-142300000D01*
X30205989Y-142300000D01*
X30205989Y-137439400D01*
X31259936Y-137439400D01*
X31259936Y-139166600D01*
X31289506Y-139315259D01*
X31373714Y-139441286D01*
X31499741Y-139525494D01*
X31648400Y-139555064D01*
X33375600Y-139555064D01*
X33524259Y-139525494D01*
X33650286Y-139441286D01*
X33734494Y-139315259D01*
X33764064Y-139166600D01*
X33764064Y-138303000D01*
X33783017Y-138303000D01*
X33877757Y-138779288D01*
X34147552Y-139183065D01*
X34551329Y-139452860D01*
X35027617Y-139547600D01*
X35076383Y-139547600D01*
X35552671Y-139452860D01*
X35956448Y-139183065D01*
X36226243Y-138779288D01*
X36320983Y-138303000D01*
X36226243Y-137826712D01*
X35956448Y-137422935D01*
X35552671Y-137153140D01*
X35076383Y-137058400D01*
X35027617Y-137058400D01*
X34551329Y-137153140D01*
X34147552Y-137422935D01*
X33877757Y-137826712D01*
X33783017Y-138303000D01*
X33764064Y-138303000D01*
X33764064Y-137439400D01*
X33734494Y-137290741D01*
X33650286Y-137164714D01*
X33524259Y-137080506D01*
X33375600Y-137050936D01*
X31648400Y-137050936D01*
X31499741Y-137080506D01*
X31373714Y-137164714D01*
X31289506Y-137290741D01*
X31259936Y-137439400D01*
X30205989Y-137439400D01*
X30205989Y-135631933D01*
X31356922Y-134481000D01*
X31631000Y-134481000D01*
X31631000Y-134867268D01*
X31607552Y-134882935D01*
X31337757Y-135286712D01*
X31243017Y-135763000D01*
X31337757Y-136239288D01*
X31607552Y-136643065D01*
X32011329Y-136912860D01*
X32487617Y-137007600D01*
X32536383Y-137007600D01*
X33012671Y-136912860D01*
X33416448Y-136643065D01*
X33686243Y-136239288D01*
X33780983Y-135763000D01*
X33686243Y-135286712D01*
X33416448Y-134882935D01*
X33393000Y-134867268D01*
X33393000Y-134481000D01*
X36863917Y-134481000D01*
X36703510Y-134556179D01*
X36309312Y-134988053D01*
X36201159Y-135249172D01*
X35956448Y-134882935D01*
X35552671Y-134613140D01*
X35076383Y-134518400D01*
X35027617Y-134518400D01*
X34551329Y-134613140D01*
X34147552Y-134882935D01*
X33877757Y-135286712D01*
X33783017Y-135763000D01*
X33877757Y-136239288D01*
X34147552Y-136643065D01*
X34551329Y-136912860D01*
X35027617Y-137007600D01*
X35076383Y-137007600D01*
X35552671Y-136912860D01*
X35956448Y-136643065D01*
X36201159Y-136276828D01*
X36309312Y-136537947D01*
X36703510Y-136969821D01*
X37093662Y-137152676D01*
X37091329Y-137153140D01*
X36687552Y-137422935D01*
X36417757Y-137826712D01*
X36323017Y-138303000D01*
X36417757Y-138779288D01*
X36687552Y-139183065D01*
X37091329Y-139452860D01*
X37567617Y-139547600D01*
X37616383Y-139547600D01*
X38037285Y-139463877D01*
X39119319Y-140545911D01*
X39075314Y-140575314D01*
X38991106Y-140701341D01*
X38961536Y-140850000D01*
X38961536Y-142350000D01*
X38991106Y-142498659D01*
X39075314Y-142624686D01*
X39201341Y-142708894D01*
X39350000Y-142738464D01*
X40650000Y-142738464D01*
X40798659Y-142708894D01*
X40924686Y-142624686D01*
X41008894Y-142498659D01*
X41038464Y-142350000D01*
X41038464Y-140850000D01*
X41008894Y-140701341D01*
X40924686Y-140575314D01*
X40798659Y-140491106D01*
X40650000Y-140461536D01*
X40430181Y-140461536D01*
X40357796Y-140353204D01*
X38769169Y-138764577D01*
X38860983Y-138303000D01*
X38766243Y-137826712D01*
X38496448Y-137422935D01*
X38092671Y-137153140D01*
X38090338Y-137152676D01*
X38480490Y-136969821D01*
X38874688Y-136537947D01*
X39046958Y-136122026D01*
X38925817Y-135890000D01*
X37719000Y-135890000D01*
X37719000Y-135910000D01*
X37465000Y-135910000D01*
X37465000Y-135890000D01*
X37445000Y-135890000D01*
X37445000Y-135636000D01*
X37465000Y-135636000D01*
X37465000Y-135616000D01*
X37719000Y-135616000D01*
X37719000Y-135636000D01*
X38925817Y-135636000D01*
X39046958Y-135403974D01*
X38874688Y-134988053D01*
X38480490Y-134556179D01*
X38320083Y-134481000D01*
X40035078Y-134481000D01*
X41319000Y-135764922D01*
X41319000Y-140500000D01*
X41386062Y-140837144D01*
X41577039Y-141122961D01*
X42269039Y-141814961D01*
X42554856Y-142005938D01*
X42892000Y-142073000D01*
X43796536Y-142073000D01*
X43796536Y-142442000D01*
X43826106Y-142590659D01*
X43910314Y-142716686D01*
X44036341Y-142800894D01*
X44185000Y-142830464D01*
X45985000Y-142830464D01*
X46133659Y-142800894D01*
X46259686Y-142716686D01*
X46343894Y-142590659D01*
X46373464Y-142442000D01*
X46373464Y-142073000D01*
X47606536Y-142073000D01*
X47606536Y-142442000D01*
X47636106Y-142590659D01*
X47720314Y-142716686D01*
X47846341Y-142800894D01*
X47995000Y-142830464D01*
X49795000Y-142830464D01*
X49943659Y-142800894D01*
X50069686Y-142716686D01*
X50153894Y-142590659D01*
X50183464Y-142442000D01*
X50183464Y-142073000D01*
X51416536Y-142073000D01*
X51416536Y-142442000D01*
X51446106Y-142590659D01*
X51530314Y-142716686D01*
X51656341Y-142800894D01*
X51805000Y-142830464D01*
X53605000Y-142830464D01*
X53753659Y-142800894D01*
X53879686Y-142716686D01*
X53963894Y-142590659D01*
X53993464Y-142442000D01*
X53993464Y-142350000D01*
X55019000Y-142350000D01*
X55086062Y-142687144D01*
X55277039Y-142972961D01*
X55562856Y-143163938D01*
X55900000Y-143231000D01*
X56861536Y-143231000D01*
X56861536Y-143250000D01*
X56891106Y-143398659D01*
X56975314Y-143524686D01*
X57101341Y-143608894D01*
X57250000Y-143638464D01*
X59750000Y-143638464D01*
X59898659Y-143608894D01*
X60024686Y-143524686D01*
X60108894Y-143398659D01*
X60138464Y-143250000D01*
X60138464Y-142635750D01*
X60615000Y-142635750D01*
X60615000Y-143376310D01*
X60711673Y-143609699D01*
X60890302Y-143788327D01*
X61123691Y-143885000D01*
X62214250Y-143885000D01*
X62373000Y-143726250D01*
X62373000Y-142477000D01*
X60773750Y-142477000D01*
X60615000Y-142635750D01*
X60138464Y-142635750D01*
X60138464Y-141450000D01*
X60113340Y-141323690D01*
X60615000Y-141323690D01*
X60615000Y-142064250D01*
X60773750Y-142223000D01*
X62373000Y-142223000D01*
X62373000Y-140973750D01*
X62627000Y-140973750D01*
X62627000Y-142223000D01*
X64226250Y-142223000D01*
X64385000Y-142064250D01*
X64385000Y-141323690D01*
X64288327Y-141090301D01*
X64109698Y-140911673D01*
X63876309Y-140815000D01*
X62785750Y-140815000D01*
X62627000Y-140973750D01*
X62373000Y-140973750D01*
X62214250Y-140815000D01*
X61123691Y-140815000D01*
X60890302Y-140911673D01*
X60711673Y-141090301D01*
X60615000Y-141323690D01*
X60113340Y-141323690D01*
X60108894Y-141301341D01*
X60024686Y-141175314D01*
X59898659Y-141091106D01*
X59750000Y-141061536D01*
X57250000Y-141061536D01*
X57101341Y-141091106D01*
X56975314Y-141175314D01*
X56891106Y-141301341D01*
X56861536Y-141450000D01*
X56861536Y-141469000D01*
X55900000Y-141469000D01*
X55562856Y-141536062D01*
X55277039Y-141727039D01*
X55086062Y-142012856D01*
X55019000Y-142350000D01*
X53993464Y-142350000D01*
X53993464Y-142073000D01*
X54007000Y-142073000D01*
X54344144Y-142005938D01*
X54629961Y-141814961D01*
X55272961Y-141171961D01*
X55463938Y-140886144D01*
X55531000Y-140549000D01*
X55531000Y-139592648D01*
X55562862Y-139613938D01*
X55900006Y-139681000D01*
X56861536Y-139681000D01*
X56861536Y-139700000D01*
X56891106Y-139848659D01*
X56975314Y-139974686D01*
X57101341Y-140058894D01*
X57250000Y-140088464D01*
X59750000Y-140088464D01*
X59898659Y-140058894D01*
X60024686Y-139974686D01*
X60108894Y-139848659D01*
X60138464Y-139700000D01*
X60138464Y-139085750D01*
X60615000Y-139085750D01*
X60615000Y-139826310D01*
X60711673Y-140059699D01*
X60890302Y-140238327D01*
X61123691Y-140335000D01*
X62214250Y-140335000D01*
X62373000Y-140176250D01*
X62373000Y-138927000D01*
X62627000Y-138927000D01*
X62627000Y-140176250D01*
X62785750Y-140335000D01*
X63876309Y-140335000D01*
X64109698Y-140238327D01*
X64288327Y-140059699D01*
X64385000Y-139826310D01*
X64385000Y-139085750D01*
X64226250Y-138927000D01*
X62627000Y-138927000D01*
X62373000Y-138927000D01*
X60773750Y-138927000D01*
X60615000Y-139085750D01*
X60138464Y-139085750D01*
X60138464Y-137900000D01*
X60113340Y-137773690D01*
X60615000Y-137773690D01*
X60615000Y-138514250D01*
X60773750Y-138673000D01*
X62373000Y-138673000D01*
X62373000Y-137423750D01*
X62627000Y-137423750D01*
X62627000Y-138673000D01*
X64226250Y-138673000D01*
X64385000Y-138514250D01*
X64385000Y-137773690D01*
X64288327Y-137540301D01*
X64109698Y-137361673D01*
X63876309Y-137265000D01*
X62785750Y-137265000D01*
X62627000Y-137423750D01*
X62373000Y-137423750D01*
X62214250Y-137265000D01*
X61123691Y-137265000D01*
X60890302Y-137361673D01*
X60711673Y-137540301D01*
X60615000Y-137773690D01*
X60113340Y-137773690D01*
X60108894Y-137751341D01*
X60024686Y-137625314D01*
X59898659Y-137541106D01*
X59750000Y-137511536D01*
X57250000Y-137511536D01*
X57101341Y-137541106D01*
X56975314Y-137625314D01*
X56891106Y-137751341D01*
X56861536Y-137900000D01*
X56861536Y-137919000D01*
X55900006Y-137919000D01*
X55626523Y-137973399D01*
X55740961Y-137858961D01*
X55931938Y-137573144D01*
X55999000Y-137236000D01*
X55999000Y-137086086D01*
X56262719Y-137225592D01*
X56300391Y-137229462D01*
X56491000Y-137104731D01*
X56491000Y-135763000D01*
X56745000Y-135763000D01*
X56745000Y-137104731D01*
X56935609Y-137229462D01*
X56973281Y-137225592D01*
X57401474Y-136999080D01*
X57710390Y-136625947D01*
X57853000Y-136163000D01*
X57853000Y-135763000D01*
X56745000Y-135763000D01*
X56491000Y-135763000D01*
X56471000Y-135763000D01*
X56471000Y-135509000D01*
X56491000Y-135509000D01*
X56491000Y-135489000D01*
X56745000Y-135489000D01*
X56745000Y-135509000D01*
X57853000Y-135509000D01*
X57853000Y-135109000D01*
X57767934Y-134832856D01*
X59194039Y-136258961D01*
X59479856Y-136449938D01*
X59817000Y-136517000D01*
X59971536Y-136517000D01*
X59971536Y-136636000D01*
X60001106Y-136784659D01*
X60085314Y-136910686D01*
X60211341Y-136994894D01*
X60360000Y-137024464D01*
X61560000Y-137024464D01*
X61679556Y-137000683D01*
X62104719Y-137225592D01*
X62142391Y-137229462D01*
X62333000Y-137104731D01*
X62333000Y-135763000D01*
X62587000Y-135763000D01*
X62587000Y-137104731D01*
X62777609Y-137229462D01*
X62815281Y-137225592D01*
X63243474Y-136999080D01*
X63552390Y-136625947D01*
X63695000Y-136163000D01*
X63695000Y-135763000D01*
X62587000Y-135763000D01*
X62333000Y-135763000D01*
X62313000Y-135763000D01*
X62313000Y-135675000D01*
X65436536Y-135675000D01*
X65436536Y-137375000D01*
X65466106Y-137523659D01*
X65550314Y-137649686D01*
X65676341Y-137733894D01*
X65825000Y-137763464D01*
X66044000Y-137763464D01*
X66044000Y-137846536D01*
X66025000Y-137846536D01*
X65876341Y-137876106D01*
X65750314Y-137960314D01*
X65666106Y-138086341D01*
X65636536Y-138235000D01*
X65636536Y-139735000D01*
X65666106Y-139883659D01*
X65750314Y-140009686D01*
X65876341Y-140093894D01*
X66025000Y-140123464D01*
X67325000Y-140123464D01*
X67473659Y-140093894D01*
X67599686Y-140009686D01*
X67683894Y-139883659D01*
X67713464Y-139735000D01*
X67713464Y-138235000D01*
X67683894Y-138086341D01*
X67599686Y-137960314D01*
X67473659Y-137876106D01*
X67325000Y-137846536D01*
X67306000Y-137846536D01*
X67306000Y-137763464D01*
X67525000Y-137763464D01*
X67673659Y-137733894D01*
X67799686Y-137649686D01*
X67883894Y-137523659D01*
X67913464Y-137375000D01*
X67913464Y-135675000D01*
X67976536Y-135675000D01*
X67976536Y-137375000D01*
X68006106Y-137523659D01*
X68090314Y-137649686D01*
X68216341Y-137733894D01*
X68365000Y-137763464D01*
X68584000Y-137763464D01*
X68584000Y-137846536D01*
X68565000Y-137846536D01*
X68416341Y-137876106D01*
X68290314Y-137960314D01*
X68206106Y-138086341D01*
X68176536Y-138235000D01*
X68176536Y-139735000D01*
X68206106Y-139883659D01*
X68290314Y-140009686D01*
X68416341Y-140093894D01*
X68565000Y-140123464D01*
X69865000Y-140123464D01*
X70013659Y-140093894D01*
X70139686Y-140009686D01*
X70223894Y-139883659D01*
X70253464Y-139735000D01*
X70253464Y-138235000D01*
X70223894Y-138086341D01*
X70139686Y-137960314D01*
X70013659Y-137876106D01*
X69865000Y-137846536D01*
X69846000Y-137846536D01*
X69846000Y-137763464D01*
X70065000Y-137763464D01*
X70213659Y-137733894D01*
X70339686Y-137649686D01*
X70423894Y-137523659D01*
X70453464Y-137375000D01*
X70453464Y-135675000D01*
X70516536Y-135675000D01*
X70516536Y-137375000D01*
X70546106Y-137523659D01*
X70630314Y-137649686D01*
X70756341Y-137733894D01*
X70905000Y-137763464D01*
X71124000Y-137763464D01*
X71124000Y-137846536D01*
X71105000Y-137846536D01*
X70956341Y-137876106D01*
X70830314Y-137960314D01*
X70746106Y-138086341D01*
X70716536Y-138235000D01*
X70716536Y-139735000D01*
X70746106Y-139883659D01*
X70830314Y-140009686D01*
X70956341Y-140093894D01*
X71105000Y-140123464D01*
X72405000Y-140123464D01*
X72553659Y-140093894D01*
X72679686Y-140009686D01*
X72763894Y-139883659D01*
X72793464Y-139735000D01*
X72793464Y-138235000D01*
X72763894Y-138086341D01*
X72679686Y-137960314D01*
X72553659Y-137876106D01*
X72405000Y-137846536D01*
X72386000Y-137846536D01*
X72386000Y-137763464D01*
X72605000Y-137763464D01*
X72753659Y-137733894D01*
X72879686Y-137649686D01*
X72963894Y-137523659D01*
X72993464Y-137375000D01*
X72993464Y-135675000D01*
X73056536Y-135675000D01*
X73056536Y-137375000D01*
X73086106Y-137523659D01*
X73170314Y-137649686D01*
X73296341Y-137733894D01*
X73445000Y-137763464D01*
X73664000Y-137763464D01*
X73664000Y-137846536D01*
X73645000Y-137846536D01*
X73496341Y-137876106D01*
X73370314Y-137960314D01*
X73286106Y-138086341D01*
X73256536Y-138235000D01*
X73256536Y-139735000D01*
X73286106Y-139883659D01*
X73370314Y-140009686D01*
X73496341Y-140093894D01*
X73645000Y-140123464D01*
X74945000Y-140123464D01*
X75093659Y-140093894D01*
X75219686Y-140009686D01*
X75235872Y-139985461D01*
X76104092Y-139985461D01*
X76128144Y-140635460D01*
X76330613Y-141124264D01*
X76597468Y-141222927D01*
X77570395Y-140250000D01*
X77929605Y-140250000D01*
X78902532Y-141222927D01*
X79169387Y-141124264D01*
X79395908Y-140514539D01*
X79371856Y-139864540D01*
X79169387Y-139375736D01*
X78902532Y-139277073D01*
X77929605Y-140250000D01*
X77570395Y-140250000D01*
X76597468Y-139277073D01*
X76330613Y-139375736D01*
X76104092Y-139985461D01*
X75235872Y-139985461D01*
X75303894Y-139883659D01*
X75333464Y-139735000D01*
X75333464Y-139097468D01*
X76777073Y-139097468D01*
X77750000Y-140070395D01*
X78722927Y-139097468D01*
X78624264Y-138830613D01*
X78014539Y-138604092D01*
X77364540Y-138628144D01*
X76875736Y-138830613D01*
X76777073Y-139097468D01*
X75333464Y-139097468D01*
X75333464Y-138235000D01*
X75303894Y-138086341D01*
X75219686Y-137960314D01*
X75093659Y-137876106D01*
X74945000Y-137846536D01*
X74926000Y-137846536D01*
X74926000Y-137763464D01*
X75145000Y-137763464D01*
X75293659Y-137733894D01*
X75419686Y-137649686D01*
X75503894Y-137523659D01*
X75533464Y-137375000D01*
X75533464Y-135675000D01*
X75503894Y-135526341D01*
X75419686Y-135400314D01*
X75293659Y-135316106D01*
X75145000Y-135286536D01*
X73445000Y-135286536D01*
X73296341Y-135316106D01*
X73170314Y-135400314D01*
X73086106Y-135526341D01*
X73056536Y-135675000D01*
X72993464Y-135675000D01*
X72963894Y-135526341D01*
X72879686Y-135400314D01*
X72753659Y-135316106D01*
X72605000Y-135286536D01*
X70905000Y-135286536D01*
X70756341Y-135316106D01*
X70630314Y-135400314D01*
X70546106Y-135526341D01*
X70516536Y-135675000D01*
X70453464Y-135675000D01*
X70423894Y-135526341D01*
X70339686Y-135400314D01*
X70213659Y-135316106D01*
X70065000Y-135286536D01*
X68365000Y-135286536D01*
X68216341Y-135316106D01*
X68090314Y-135400314D01*
X68006106Y-135526341D01*
X67976536Y-135675000D01*
X67913464Y-135675000D01*
X67883894Y-135526341D01*
X67799686Y-135400314D01*
X67673659Y-135316106D01*
X67525000Y-135286536D01*
X65825000Y-135286536D01*
X65676341Y-135316106D01*
X65550314Y-135400314D01*
X65466106Y-135526341D01*
X65436536Y-135675000D01*
X62313000Y-135675000D01*
X62313000Y-135509000D01*
X62333000Y-135509000D01*
X62333000Y-134167269D01*
X62587000Y-134167269D01*
X62587000Y-135509000D01*
X63695000Y-135509000D01*
X63695000Y-135109000D01*
X63552390Y-134646053D01*
X63243474Y-134272920D01*
X62815281Y-134046408D01*
X62777609Y-134042538D01*
X62587000Y-134167269D01*
X62333000Y-134167269D01*
X62142391Y-134042538D01*
X62104719Y-134046408D01*
X61679556Y-134271317D01*
X61560000Y-134247536D01*
X60360000Y-134247536D01*
X60211341Y-134277106D01*
X60085314Y-134361314D01*
X60001106Y-134487341D01*
X59986698Y-134559776D01*
X59411922Y-133985000D01*
X65419883Y-133985000D01*
X65513587Y-134456083D01*
X65780435Y-134855448D01*
X66179800Y-135122296D01*
X66650883Y-135216000D01*
X66699117Y-135216000D01*
X67170200Y-135122296D01*
X67569565Y-134855448D01*
X67836413Y-134456083D01*
X67930117Y-133985000D01*
X67959883Y-133985000D01*
X68053587Y-134456083D01*
X68320435Y-134855448D01*
X68719800Y-135122296D01*
X69190883Y-135216000D01*
X69239117Y-135216000D01*
X69710200Y-135122296D01*
X70109565Y-134855448D01*
X70376413Y-134456083D01*
X70470117Y-133985000D01*
X70499883Y-133985000D01*
X70593587Y-134456083D01*
X70860435Y-134855448D01*
X71259800Y-135122296D01*
X71730883Y-135216000D01*
X71779117Y-135216000D01*
X72250200Y-135122296D01*
X72649565Y-134855448D01*
X72916413Y-134456083D01*
X73010117Y-133985000D01*
X73039883Y-133985000D01*
X73133587Y-134456083D01*
X73400435Y-134855448D01*
X73799800Y-135122296D01*
X74270883Y-135216000D01*
X74319117Y-135216000D01*
X74790200Y-135122296D01*
X75173773Y-134866000D01*
X76680809Y-134866000D01*
X76579928Y-134966705D01*
X76369241Y-135474097D01*
X76368761Y-136023493D01*
X76578563Y-136531251D01*
X76966705Y-136920072D01*
X77474097Y-137130759D01*
X78023493Y-137131239D01*
X78531251Y-136921437D01*
X78920072Y-136533295D01*
X79130759Y-136025903D01*
X79131239Y-135476507D01*
X78921437Y-134968749D01*
X78818867Y-134866000D01*
X79264078Y-134866000D01*
X80272000Y-135873922D01*
X80272000Y-141113078D01*
X77609039Y-143776039D01*
X77418062Y-144061856D01*
X77351000Y-144399000D01*
X77351000Y-147552000D01*
X77418062Y-147889144D01*
X77609039Y-148174961D01*
X78757039Y-149322961D01*
X79042856Y-149513938D01*
X79380000Y-149581000D01*
X80106674Y-149581000D01*
X79999139Y-149839972D01*
X79998861Y-150158630D01*
X80120549Y-150453138D01*
X80345677Y-150678659D01*
X80367202Y-150687597D01*
X80800000Y-151120395D01*
X80827257Y-151093138D01*
X80861204Y-151175095D01*
X81068087Y-151202308D01*
X81620395Y-150650000D01*
X81606253Y-150635858D01*
X81785858Y-150456253D01*
X81800000Y-150470395D01*
X81814143Y-150456253D01*
X81993748Y-150635858D01*
X81979605Y-150650000D01*
X81993748Y-150664143D01*
X81814143Y-150843748D01*
X81800000Y-150829605D01*
X81772743Y-150856862D01*
X81738796Y-150774905D01*
X81531913Y-150747692D01*
X80979605Y-151300000D01*
X81531913Y-151852308D01*
X81738796Y-151825095D01*
X81776059Y-151710203D01*
X82092531Y-151685127D01*
X82298000Y-151600019D01*
X82298000Y-152718424D01*
X82118256Y-152656349D01*
X81199605Y-153575000D01*
X81213748Y-153589143D01*
X81034143Y-153768748D01*
X81020000Y-153754605D01*
X81005858Y-153768748D01*
X80826253Y-153589143D01*
X80840395Y-153575000D01*
X79921744Y-152656349D01*
X79662668Y-152745821D01*
X79448675Y-153328368D01*
X79473903Y-153948461D01*
X79648975Y-154371121D01*
X79568159Y-154404514D01*
X79348268Y-154624021D01*
X79229118Y-154910968D01*
X79228846Y-155221669D01*
X79347496Y-155508823D01*
X79567003Y-155728714D01*
X79766000Y-155811344D01*
X79766000Y-156325250D01*
X79924750Y-156484000D01*
X80899000Y-156484000D01*
X80899000Y-156464000D01*
X81153000Y-156464000D01*
X81153000Y-156484000D01*
X82127250Y-156484000D01*
X82286000Y-156325250D01*
X82286000Y-155734691D01*
X82189327Y-155501302D01*
X82126029Y-155438004D01*
X82145796Y-155424796D01*
X83161796Y-154408796D01*
X83271483Y-154244638D01*
X83310000Y-154051000D01*
X83310000Y-150354000D01*
X83271483Y-150160362D01*
X83161796Y-149996204D01*
X82600926Y-149435334D01*
X82601139Y-149191370D01*
X82479451Y-148896862D01*
X82254323Y-148671341D01*
X81960028Y-148549139D01*
X81650938Y-148548869D01*
X81613938Y-148362856D01*
X81608464Y-148354664D01*
X81608464Y-148280000D01*
X81578894Y-148131341D01*
X81494686Y-148005314D01*
X81424336Y-147958308D01*
X81849179Y-147782332D01*
X81938651Y-147523256D01*
X81020000Y-146604605D01*
X80101349Y-147523256D01*
X80190821Y-147782332D01*
X80290641Y-147819000D01*
X79744922Y-147819000D01*
X79113000Y-147187078D01*
X79113000Y-146178368D01*
X79448675Y-146178368D01*
X79473903Y-146798461D01*
X79662668Y-147254179D01*
X79921744Y-147343651D01*
X80840395Y-146425000D01*
X81199605Y-146425000D01*
X82118256Y-147343651D01*
X82377332Y-147254179D01*
X82591325Y-146671632D01*
X82566097Y-146051539D01*
X82377332Y-145595821D01*
X82118256Y-145506349D01*
X81199605Y-146425000D01*
X80840395Y-146425000D01*
X79921744Y-145506349D01*
X79662668Y-145595821D01*
X79448675Y-146178368D01*
X79113000Y-146178368D01*
X79113000Y-145326744D01*
X80101349Y-145326744D01*
X81020000Y-146245395D01*
X81938651Y-145326744D01*
X81849179Y-145067668D01*
X81266632Y-144853675D01*
X80646539Y-144878903D01*
X80190821Y-145067668D01*
X80101349Y-145326744D01*
X79113000Y-145326744D01*
X79113000Y-144763922D01*
X81775961Y-142100961D01*
X81966938Y-141815144D01*
X82034000Y-141478000D01*
X82034000Y-141402532D01*
X83277073Y-141402532D01*
X83375736Y-141669387D01*
X83985461Y-141895908D01*
X84635460Y-141871856D01*
X85124264Y-141669387D01*
X85222927Y-141402532D01*
X84250000Y-140429605D01*
X83277073Y-141402532D01*
X82034000Y-141402532D01*
X82034000Y-139985461D01*
X82604092Y-139985461D01*
X82628144Y-140635460D01*
X82830613Y-141124264D01*
X83097468Y-141222927D01*
X84070395Y-140250000D01*
X84429605Y-140250000D01*
X85402532Y-141222927D01*
X85669387Y-141124264D01*
X85895908Y-140514539D01*
X85871856Y-139864540D01*
X85669387Y-139375736D01*
X85402532Y-139277073D01*
X84429605Y-140250000D01*
X84070395Y-140250000D01*
X83097468Y-139277073D01*
X82830613Y-139375736D01*
X82604092Y-139985461D01*
X82034000Y-139985461D01*
X82034000Y-139097468D01*
X83277073Y-139097468D01*
X84250000Y-140070395D01*
X85222927Y-139097468D01*
X85124264Y-138830613D01*
X84514539Y-138604092D01*
X83864540Y-138628144D01*
X83375736Y-138830613D01*
X83277073Y-139097468D01*
X82034000Y-139097468D01*
X82034000Y-136023493D01*
X82868761Y-136023493D01*
X83078563Y-136531251D01*
X83466705Y-136920072D01*
X83974097Y-137130759D01*
X84523493Y-137131239D01*
X85031251Y-136921437D01*
X85420072Y-136533295D01*
X85630759Y-136025903D01*
X85631239Y-135476507D01*
X85421437Y-134968749D01*
X85033295Y-134579928D01*
X84525903Y-134369241D01*
X83976507Y-134368761D01*
X83468749Y-134578563D01*
X83079928Y-134966705D01*
X82869241Y-135474097D01*
X82868761Y-136023493D01*
X82034000Y-136023493D01*
X82034000Y-135509000D01*
X81995631Y-135316106D01*
X81966938Y-135171855D01*
X81775961Y-134886039D01*
X80251961Y-133362039D01*
X79966144Y-133171062D01*
X79629000Y-133104000D01*
X75173773Y-133104000D01*
X74790200Y-132847704D01*
X74319117Y-132754000D01*
X74270883Y-132754000D01*
X73799800Y-132847704D01*
X73400435Y-133114552D01*
X73133587Y-133513917D01*
X73039883Y-133985000D01*
X73010117Y-133985000D01*
X72916413Y-133513917D01*
X72649565Y-133114552D01*
X72250200Y-132847704D01*
X71779117Y-132754000D01*
X71730883Y-132754000D01*
X71259800Y-132847704D01*
X70860435Y-133114552D01*
X70593587Y-133513917D01*
X70499883Y-133985000D01*
X70470117Y-133985000D01*
X70376413Y-133513917D01*
X70109565Y-133114552D01*
X69710200Y-132847704D01*
X69239117Y-132754000D01*
X69190883Y-132754000D01*
X68719800Y-132847704D01*
X68320435Y-133114552D01*
X68053587Y-133513917D01*
X67959883Y-133985000D01*
X67930117Y-133985000D01*
X67836413Y-133513917D01*
X67569565Y-133114552D01*
X67170200Y-132847704D01*
X66699117Y-132754000D01*
X66650883Y-132754000D01*
X66179800Y-132847704D01*
X65780435Y-133114552D01*
X65513587Y-133513917D01*
X65419883Y-133985000D01*
X59411922Y-133985000D01*
X58280961Y-132854039D01*
X57995144Y-132663062D01*
X57658000Y-132596000D01*
X53721000Y-132596000D01*
X53383856Y-132663062D01*
X53098039Y-132854039D01*
X52082039Y-133870039D01*
X51891062Y-134155856D01*
X51824000Y-134493000D01*
X51824000Y-135553536D01*
X51805000Y-135553536D01*
X51656341Y-135583106D01*
X51530314Y-135667314D01*
X51446106Y-135793341D01*
X51416536Y-135942000D01*
X51416536Y-138442000D01*
X51446106Y-138590659D01*
X51530314Y-138716686D01*
X51656341Y-138800894D01*
X51805000Y-138830464D01*
X53605000Y-138830464D01*
X53753659Y-138800894D01*
X53769000Y-138790644D01*
X53769000Y-139593356D01*
X53753659Y-139583106D01*
X53605000Y-139553536D01*
X51805000Y-139553536D01*
X51656341Y-139583106D01*
X51530314Y-139667314D01*
X51446106Y-139793341D01*
X51416536Y-139942000D01*
X51416536Y-140311000D01*
X50183464Y-140311000D01*
X50183464Y-139942000D01*
X50153894Y-139793341D01*
X50069686Y-139667314D01*
X49943659Y-139583106D01*
X49795000Y-139553536D01*
X47995000Y-139553536D01*
X47846341Y-139583106D01*
X47720314Y-139667314D01*
X47636106Y-139793341D01*
X47606536Y-139942000D01*
X47606536Y-140311000D01*
X46373464Y-140311000D01*
X46373464Y-139942000D01*
X46343894Y-139793341D01*
X46259686Y-139667314D01*
X46133659Y-139583106D01*
X45985000Y-139553536D01*
X44185000Y-139553536D01*
X44036341Y-139583106D01*
X43910314Y-139667314D01*
X43826106Y-139793341D01*
X43796536Y-139942000D01*
X43796536Y-140311000D01*
X43256922Y-140311000D01*
X43081000Y-140135078D01*
X43081000Y-135942000D01*
X43796536Y-135942000D01*
X43796536Y-138442000D01*
X43826106Y-138590659D01*
X43910314Y-138716686D01*
X44036341Y-138800894D01*
X44185000Y-138830464D01*
X45985000Y-138830464D01*
X46133659Y-138800894D01*
X46259686Y-138716686D01*
X46343894Y-138590659D01*
X46373464Y-138442000D01*
X46373464Y-135942000D01*
X46343894Y-135793341D01*
X46259686Y-135667314D01*
X46133659Y-135583106D01*
X45985000Y-135553536D01*
X45966000Y-135553536D01*
X45966000Y-134863773D01*
X46222296Y-134480200D01*
X46316000Y-134009117D01*
X46316000Y-133960883D01*
X46222296Y-133489800D01*
X45985226Y-133135000D01*
X46386536Y-133135000D01*
X46386536Y-134835000D01*
X46416106Y-134983659D01*
X46500314Y-135109686D01*
X46626341Y-135193894D01*
X46775000Y-135223464D01*
X47617542Y-135223464D01*
X47955476Y-135561398D01*
X47846341Y-135583106D01*
X47720314Y-135667314D01*
X47636106Y-135793341D01*
X47606536Y-135942000D01*
X47606536Y-138442000D01*
X47636106Y-138590659D01*
X47720314Y-138716686D01*
X47846341Y-138800894D01*
X47995000Y-138830464D01*
X49795000Y-138830464D01*
X49943659Y-138800894D01*
X50069686Y-138716686D01*
X50153894Y-138590659D01*
X50183464Y-138442000D01*
X50183464Y-135942000D01*
X50153894Y-135793341D01*
X50069686Y-135667314D01*
X49943659Y-135583106D01*
X49795000Y-135553536D01*
X49776000Y-135553536D01*
X49776000Y-135255000D01*
X49708938Y-134917856D01*
X49517961Y-134632039D01*
X48863464Y-133977542D01*
X48863464Y-133135000D01*
X48833894Y-132986341D01*
X48749686Y-132860314D01*
X48623659Y-132776106D01*
X48475000Y-132746536D01*
X46775000Y-132746536D01*
X46626341Y-132776106D01*
X46500314Y-132860314D01*
X46416106Y-132986341D01*
X46386536Y-133135000D01*
X45985226Y-133135000D01*
X45955448Y-133090435D01*
X45556083Y-132823587D01*
X45085000Y-132729883D01*
X44613917Y-132823587D01*
X44214552Y-133090435D01*
X43947704Y-133489800D01*
X43854000Y-133960883D01*
X43854000Y-134009117D01*
X43947704Y-134480200D01*
X44204000Y-134863773D01*
X44204000Y-135553536D01*
X44185000Y-135553536D01*
X44036341Y-135583106D01*
X43910314Y-135667314D01*
X43826106Y-135793341D01*
X43796536Y-135942000D01*
X43081000Y-135942000D01*
X43081000Y-135400000D01*
X43075828Y-135374000D01*
X43013938Y-135062855D01*
X42822961Y-134777039D01*
X41022961Y-132977039D01*
X40737144Y-132786062D01*
X40400000Y-132719000D01*
X30992000Y-132719000D01*
X30654856Y-132786062D01*
X30369039Y-132977039D01*
X28702028Y-134644050D01*
X28511051Y-134929867D01*
X28443989Y-135267011D01*
X27481000Y-135267011D01*
X27481000Y-132481000D01*
X86519000Y-132481000D01*
X86519000Y-150000000D01*
X86519000Y-150000000D01*
G37*
X86519000Y-150000000D02*
X86544000Y-150125683D01*
X86544000Y-167544000D01*
X27481000Y-167544000D01*
X27481000Y-135267011D01*
X28443989Y-135267011D01*
X28443989Y-143574989D01*
X28511051Y-143912133D01*
X28702028Y-144197950D01*
X30577039Y-146072961D01*
X30862856Y-146263938D01*
X31200000Y-146331000D01*
X34785078Y-146331000D01*
X36019000Y-147564922D01*
X36019000Y-156000000D01*
X36086062Y-156337144D01*
X36277039Y-156622961D01*
X39077039Y-159422961D01*
X39362856Y-159613938D01*
X39700000Y-159681000D01*
X44100000Y-159681000D01*
X44437144Y-159613938D01*
X44722961Y-159422961D01*
X44913938Y-159137144D01*
X44981000Y-158800000D01*
X44913938Y-158462856D01*
X44722961Y-158177039D01*
X44437144Y-157986062D01*
X44100000Y-157919000D01*
X40064922Y-157919000D01*
X38355922Y-156210000D01*
X39378000Y-156210000D01*
X39445062Y-156547144D01*
X39636039Y-156832961D01*
X39921856Y-157023938D01*
X40259000Y-157091000D01*
X44339078Y-157091000D01*
X49919000Y-162670922D01*
X49919000Y-164221227D01*
X49662704Y-164604800D01*
X49569000Y-165075883D01*
X49569000Y-165124117D01*
X49662704Y-165595200D01*
X49828939Y-165843988D01*
X49498464Y-165843988D01*
X49498464Y-164250000D01*
X49468894Y-164101341D01*
X49384686Y-163975314D01*
X49258659Y-163891106D01*
X49110000Y-163861536D01*
X47410000Y-163861536D01*
X47261341Y-163891106D01*
X47135314Y-163975314D01*
X47051106Y-164101341D01*
X47021536Y-164250000D01*
X47021536Y-165843988D01*
X46631000Y-165843988D01*
X46631000Y-164373639D01*
X46661714Y-164342979D01*
X46780864Y-164056032D01*
X46781136Y-163745331D01*
X46662486Y-163458177D01*
X46442979Y-163238286D01*
X46156032Y-163119136D01*
X45845331Y-163118864D01*
X45558177Y-163237514D01*
X45338286Y-163457021D01*
X45219136Y-163743968D01*
X45218864Y-164054669D01*
X45337514Y-164341823D01*
X45369000Y-164373364D01*
X45369000Y-166142000D01*
X45411392Y-166355117D01*
X45417032Y-166383473D01*
X45553816Y-166588184D01*
X45886804Y-166921172D01*
X46091514Y-167057956D01*
X46131577Y-167065925D01*
X46332988Y-167105988D01*
X59899288Y-167105988D01*
X60140761Y-167057956D01*
X60345472Y-166921172D01*
X61386500Y-165880145D01*
X61386502Y-165880142D01*
X61451584Y-165815060D01*
X61494983Y-165815098D01*
X61782137Y-165696448D01*
X62002028Y-165476941D01*
X62121178Y-165189994D01*
X62121450Y-164879293D01*
X62002800Y-164592139D01*
X61783293Y-164372248D01*
X61496346Y-164253098D01*
X61185645Y-164252826D01*
X60898491Y-164371476D01*
X60678600Y-164590983D01*
X60559450Y-164877930D01*
X60559411Y-164922497D01*
X60494134Y-164987774D01*
X60494131Y-164987776D01*
X59637920Y-165843988D01*
X51771061Y-165843988D01*
X51937296Y-165595200D01*
X52031000Y-165124117D01*
X52031000Y-165075883D01*
X51937296Y-164604800D01*
X51681000Y-164221227D01*
X51681000Y-162306000D01*
X51613938Y-161968856D01*
X51520991Y-161829750D01*
X62262000Y-161829750D01*
X62262000Y-162295310D01*
X62358673Y-162528699D01*
X62537302Y-162707327D01*
X62770691Y-162804000D01*
X63361250Y-162804000D01*
X63520000Y-162645250D01*
X63520000Y-161671000D01*
X62420750Y-161671000D01*
X62262000Y-161829750D01*
X51520991Y-161829750D01*
X51422961Y-161683039D01*
X45326961Y-155587039D01*
X45041144Y-155396062D01*
X44704000Y-155329000D01*
X40259000Y-155329000D01*
X39921856Y-155396062D01*
X39636039Y-155587039D01*
X39445062Y-155872856D01*
X39378000Y-156210000D01*
X38355922Y-156210000D01*
X37781000Y-155635078D01*
X37781000Y-147200000D01*
X37713938Y-146862856D01*
X37522961Y-146577039D01*
X35772961Y-144827039D01*
X35487144Y-144636062D01*
X35150000Y-144569000D01*
X31564922Y-144569000D01*
X30205989Y-143210067D01*
X30205989Y-142300000D01*
X30219000Y-142300000D01*
X30286062Y-142637144D01*
X30477039Y-142922961D01*
X30762856Y-143113938D01*
X31100000Y-143181000D01*
X35985078Y-143181000D01*
X37727039Y-144922961D01*
X38012856Y-145113938D01*
X38350000Y-145181000D01*
X38987593Y-145181000D01*
X38991106Y-145198659D01*
X39075314Y-145324686D01*
X39119000Y-145353876D01*
X39119000Y-153000000D01*
X39186062Y-153337144D01*
X39377039Y-153622961D01*
X40577039Y-154822961D01*
X40862856Y-155013938D01*
X41200000Y-155081000D01*
X46485078Y-155081000D01*
X51027039Y-159622961D01*
X51312856Y-159813938D01*
X51650000Y-159881000D01*
X56183891Y-159881000D01*
X56204000Y-159885000D01*
X57402828Y-159885000D01*
X57415314Y-159903686D01*
X57541341Y-159987894D01*
X57690000Y-160017464D01*
X59190000Y-160017464D01*
X59338659Y-159987894D01*
X59464686Y-159903686D01*
X59548894Y-159777659D01*
X59555000Y-159746962D01*
X59555000Y-159755310D01*
X59651673Y-159988699D01*
X59830302Y-160167327D01*
X60063691Y-160264000D01*
X60654250Y-160264000D01*
X60813000Y-160105250D01*
X60813000Y-159131000D01*
X60793000Y-159131000D01*
X60793000Y-158877000D01*
X60813000Y-158877000D01*
X60813000Y-157902750D01*
X61067000Y-157902750D01*
X61067000Y-158877000D01*
X61087000Y-158877000D01*
X61087000Y-159131000D01*
X61067000Y-159131000D01*
X61067000Y-160105250D01*
X61225750Y-160264000D01*
X61816309Y-160264000D01*
X62049698Y-160167327D01*
X62228327Y-159988699D01*
X62267966Y-159893002D01*
X62420748Y-159893002D01*
X62262000Y-160051750D01*
X62262000Y-160517310D01*
X62319033Y-160655000D01*
X62262000Y-160792690D01*
X62262000Y-161258250D01*
X62420750Y-161417000D01*
X63520000Y-161417000D01*
X63520000Y-159893000D01*
X63500000Y-159893000D01*
X63500000Y-159639000D01*
X63520000Y-159639000D01*
X63520000Y-158664750D01*
X63361250Y-158506000D01*
X62770691Y-158506000D01*
X62537302Y-158602673D01*
X62358673Y-158781301D01*
X62319034Y-158876998D01*
X62166252Y-158876998D01*
X62325000Y-158718250D01*
X62325000Y-158252690D01*
X62228327Y-158019301D01*
X62049698Y-157840673D01*
X61816309Y-157744000D01*
X61225750Y-157744000D01*
X61067000Y-157902750D01*
X60813000Y-157902750D01*
X60654250Y-157744000D01*
X60063691Y-157744000D01*
X59830302Y-157840673D01*
X59651673Y-158019301D01*
X59555000Y-158252690D01*
X59555000Y-158261038D01*
X59548894Y-158230341D01*
X59464686Y-158104314D01*
X59338659Y-158020106D01*
X59321000Y-158016593D01*
X59321000Y-157743922D01*
X59683922Y-157381000D01*
X64935078Y-157381000D01*
X65266000Y-157711922D01*
X65266000Y-158778593D01*
X65248341Y-158782106D01*
X65122314Y-158866314D01*
X65038106Y-158992341D01*
X65032000Y-159023038D01*
X65032000Y-159014690D01*
X64935327Y-158781301D01*
X64756698Y-158602673D01*
X64523309Y-158506000D01*
X63932750Y-158506000D01*
X63774000Y-158664750D01*
X63774000Y-159639000D01*
X63794000Y-159639000D01*
X63794000Y-159893000D01*
X63774000Y-159893000D01*
X63774000Y-161417000D01*
X63794000Y-161417000D01*
X63794000Y-161671000D01*
X63774000Y-161671000D01*
X63774000Y-162645250D01*
X63932750Y-162804000D01*
X64523309Y-162804000D01*
X64756698Y-162707327D01*
X64935327Y-162528699D01*
X65032000Y-162295310D01*
X65032000Y-162286962D01*
X65038106Y-162317659D01*
X65122314Y-162443686D01*
X65248341Y-162527894D01*
X65397000Y-162557464D01*
X66897000Y-162557464D01*
X67045659Y-162527894D01*
X67171686Y-162443686D01*
X67184172Y-162425000D01*
X67256761Y-162425000D01*
X67181476Y-162606308D01*
X67181204Y-162917009D01*
X67299854Y-163204163D01*
X67519361Y-163424054D01*
X67691059Y-163495349D01*
X67642419Y-163543989D01*
X65439011Y-163543989D01*
X65245373Y-163582506D01*
X65081215Y-163692193D01*
X64031204Y-164742204D01*
X63921517Y-164906362D01*
X63883000Y-165100000D01*
X63883000Y-165390579D01*
X63727286Y-165546021D01*
X63608136Y-165832968D01*
X63607864Y-166143669D01*
X63726514Y-166430823D01*
X63946021Y-166650714D01*
X64232968Y-166769864D01*
X64454466Y-166770058D01*
X64793204Y-167108796D01*
X64957362Y-167218483D01*
X65151000Y-167257000D01*
X83238417Y-167257000D01*
X83432055Y-167218483D01*
X83596213Y-167108796D01*
X85189804Y-165515205D01*
X85409824Y-165515398D01*
X85696978Y-165396748D01*
X85916869Y-165177241D01*
X86036019Y-164890294D01*
X86036291Y-164579593D01*
X85917641Y-164292439D01*
X85698134Y-164072548D01*
X85697916Y-164072457D01*
X85878710Y-163891979D01*
X85997860Y-163605032D01*
X85998132Y-163294331D01*
X85879482Y-163007177D01*
X85659975Y-162787286D01*
X85373028Y-162668136D01*
X85062327Y-162667864D01*
X84775173Y-162786514D01*
X84555282Y-163006021D01*
X84436132Y-163292968D01*
X84435938Y-163514466D01*
X84172358Y-163778046D01*
X84062671Y-163942204D01*
X84024154Y-164135842D01*
X84024154Y-164561254D01*
X82848408Y-165737000D01*
X69735278Y-165737000D01*
X69725037Y-165734963D01*
X69714796Y-165737000D01*
X66110129Y-165737000D01*
X66161681Y-165612849D01*
X66161953Y-165302148D01*
X66043303Y-165014994D01*
X66034324Y-165005999D01*
X68038412Y-165005999D01*
X68232050Y-164967482D01*
X68396208Y-164857795D01*
X70082834Y-163171169D01*
X70192521Y-163007011D01*
X70231038Y-162813373D01*
X70231038Y-161116630D01*
X73922204Y-164807796D01*
X74086362Y-164917483D01*
X74280000Y-164956000D01*
X77850000Y-164956000D01*
X78043638Y-164917483D01*
X78207796Y-164807796D01*
X79605796Y-163409796D01*
X79650428Y-163342999D01*
X79715483Y-163245638D01*
X79754000Y-163052000D01*
X79754000Y-162261592D01*
X80346592Y-161669000D01*
X82296000Y-161669000D01*
X82489638Y-161630483D01*
X82653796Y-161520796D01*
X85207796Y-158966796D01*
X85317483Y-158802638D01*
X85356000Y-158609000D01*
X85356000Y-155148421D01*
X85511714Y-154992979D01*
X85630864Y-154706032D01*
X85631136Y-154395331D01*
X85512486Y-154108177D01*
X85292979Y-153888286D01*
X85006032Y-153769136D01*
X84695331Y-153768864D01*
X84408177Y-153887514D01*
X84188286Y-154107021D01*
X84069136Y-154393968D01*
X84068864Y-154704669D01*
X84187514Y-154991823D01*
X84344000Y-155148583D01*
X84344000Y-158399408D01*
X82086408Y-160657000D01*
X80137000Y-160657000D01*
X79943362Y-160695517D01*
X79779204Y-160805204D01*
X78890204Y-161694204D01*
X78780517Y-161858362D01*
X78742000Y-162052000D01*
X78742000Y-162842408D01*
X77640408Y-163944000D01*
X74489592Y-163944000D01*
X71300261Y-160754669D01*
X72218864Y-160754669D01*
X72337514Y-161041823D01*
X72557021Y-161261714D01*
X72843968Y-161380864D01*
X73065466Y-161381058D01*
X74942204Y-163257796D01*
X75106362Y-163367483D01*
X75300000Y-163406000D01*
X76901579Y-163406000D01*
X77057021Y-163561714D01*
X77343968Y-163680864D01*
X77654669Y-163681136D01*
X77941823Y-163562486D01*
X78161714Y-163342979D01*
X78280864Y-163056032D01*
X78281136Y-162745331D01*
X78162486Y-162458177D01*
X78106868Y-162402462D01*
X78288598Y-162130484D01*
X78355660Y-161793340D01*
X78355660Y-158790262D01*
X78364922Y-158781000D01*
X78535078Y-158781000D01*
X79488039Y-159733961D01*
X79773856Y-159924938D01*
X80035611Y-159977004D01*
X80042106Y-160009659D01*
X80126314Y-160135686D01*
X80252341Y-160219894D01*
X80401000Y-160249464D01*
X81651000Y-160249464D01*
X81799659Y-160219894D01*
X81925686Y-160135686D01*
X82009894Y-160009659D01*
X82039464Y-159861000D01*
X82039464Y-158361000D01*
X82009894Y-158212341D01*
X81925686Y-158086314D01*
X81799659Y-158002106D01*
X81768962Y-157996000D01*
X81777310Y-157996000D01*
X82010699Y-157899327D01*
X82189327Y-157720698D01*
X82286000Y-157487309D01*
X82286000Y-156896750D01*
X82127250Y-156738000D01*
X81153000Y-156738000D01*
X81153000Y-156758000D01*
X80899000Y-156758000D01*
X80899000Y-156738000D01*
X79924750Y-156738000D01*
X79766000Y-156896750D01*
X79766000Y-157487309D01*
X79789171Y-157543249D01*
X79522961Y-157277039D01*
X79237144Y-157086062D01*
X78900000Y-157019000D01*
X78000000Y-157019000D01*
X77662856Y-157086062D01*
X77377039Y-157277039D01*
X76851699Y-157802379D01*
X76660722Y-158088196D01*
X76593660Y-158425340D01*
X76593660Y-161793340D01*
X76660722Y-162130484D01*
X76836798Y-162394000D01*
X75509592Y-162394000D01*
X73780943Y-160665351D01*
X73781136Y-160445331D01*
X73662486Y-160158177D01*
X73442979Y-159938286D01*
X73156032Y-159819136D01*
X72845331Y-159818864D01*
X72558177Y-159937514D01*
X72338286Y-160157021D01*
X72219136Y-160443968D01*
X72218864Y-160754669D01*
X71300261Y-160754669D01*
X71080969Y-160535377D01*
X71080969Y-157198421D01*
X71236683Y-157042979D01*
X71355833Y-156756032D01*
X71356105Y-156445331D01*
X71237455Y-156158177D01*
X71017948Y-155938286D01*
X70731001Y-155819136D01*
X70420300Y-155818864D01*
X70231038Y-155897066D01*
X70231038Y-151487100D01*
X70347512Y-151768989D01*
X71226384Y-152649396D01*
X72375272Y-153126456D01*
X73619270Y-153127542D01*
X74768989Y-152652488D01*
X74945039Y-152476744D01*
X80101349Y-152476744D01*
X81020000Y-153395395D01*
X81938651Y-152476744D01*
X81849179Y-152217668D01*
X81351902Y-152034998D01*
X81352308Y-152031913D01*
X80800000Y-151479605D01*
X80247692Y-152031913D01*
X80267925Y-152185730D01*
X80190821Y-152217668D01*
X80101349Y-152476744D01*
X74945039Y-152476744D01*
X75649396Y-151773616D01*
X75898321Y-151174137D01*
X79731721Y-151174137D01*
X79764873Y-151592531D01*
X79861204Y-151825095D01*
X80068087Y-151852308D01*
X80620395Y-151300000D01*
X80068087Y-150747692D01*
X79861204Y-150774905D01*
X79731721Y-151174137D01*
X75898321Y-151174137D01*
X76126456Y-150624728D01*
X76127542Y-149380730D01*
X75652488Y-148231011D01*
X74773616Y-147350604D01*
X73624728Y-146873544D01*
X72380730Y-146872458D01*
X71231011Y-147347512D01*
X70350604Y-148226384D01*
X70144402Y-148722974D01*
X70082834Y-148630831D01*
X68033207Y-146581204D01*
X67869049Y-146471517D01*
X67675411Y-146433000D01*
X58845534Y-146433000D01*
X57543899Y-145131365D01*
X57543899Y-144904363D01*
X57505382Y-144710725D01*
X57395695Y-144546567D01*
X57227128Y-144378000D01*
X58493536Y-144378000D01*
X58493536Y-145878000D01*
X58523106Y-146026659D01*
X58607314Y-146152686D01*
X58733341Y-146236894D01*
X58882000Y-146266464D01*
X59482000Y-146266464D01*
X59630659Y-146236894D01*
X59756686Y-146152686D01*
X59817000Y-146062419D01*
X59877314Y-146152686D01*
X60003341Y-146236894D01*
X60152000Y-146266464D01*
X60752000Y-146266464D01*
X60900659Y-146236894D01*
X61026686Y-146152686D01*
X61087000Y-146062419D01*
X61147314Y-146152686D01*
X61273341Y-146236894D01*
X61422000Y-146266464D01*
X62022000Y-146266464D01*
X62170659Y-146236894D01*
X62296686Y-146152686D01*
X62357000Y-146062419D01*
X62417314Y-146152686D01*
X62543341Y-146236894D01*
X62692000Y-146266464D01*
X63292000Y-146266464D01*
X63440659Y-146236894D01*
X63566686Y-146152686D01*
X63627000Y-146062419D01*
X63687314Y-146152686D01*
X63813341Y-146236894D01*
X63962000Y-146266464D01*
X64562000Y-146266464D01*
X64710659Y-146236894D01*
X64836686Y-146152686D01*
X64897000Y-146062419D01*
X64957314Y-146152686D01*
X65083341Y-146236894D01*
X65232000Y-146266464D01*
X65832000Y-146266464D01*
X65980659Y-146236894D01*
X66106686Y-146152686D01*
X66167000Y-146062419D01*
X66227314Y-146152686D01*
X66353341Y-146236894D01*
X66502000Y-146266464D01*
X67102000Y-146266464D01*
X67250659Y-146236894D01*
X67376686Y-146152686D01*
X67437000Y-146062419D01*
X67497314Y-146152686D01*
X67623341Y-146236894D01*
X67772000Y-146266464D01*
X68372000Y-146266464D01*
X68520659Y-146236894D01*
X68646686Y-146152686D01*
X68730894Y-146026659D01*
X68760464Y-145878000D01*
X68760464Y-145759000D01*
X72931000Y-145759000D01*
X73172473Y-145710968D01*
X73377184Y-145574184D01*
X74741184Y-144210185D01*
X74877968Y-144005474D01*
X74898246Y-143903527D01*
X74926000Y-143764000D01*
X74926000Y-142823464D01*
X74945000Y-142823464D01*
X75093659Y-142793894D01*
X75219686Y-142709686D01*
X75303894Y-142583659D01*
X75333464Y-142435000D01*
X75333464Y-141402532D01*
X76777073Y-141402532D01*
X76875736Y-141669387D01*
X77485461Y-141895908D01*
X78135460Y-141871856D01*
X78624264Y-141669387D01*
X78722927Y-141402532D01*
X77750000Y-140429605D01*
X76777073Y-141402532D01*
X75333464Y-141402532D01*
X75333464Y-140935000D01*
X75303894Y-140786341D01*
X75219686Y-140660314D01*
X75093659Y-140576106D01*
X74945000Y-140546536D01*
X73645000Y-140546536D01*
X73496341Y-140576106D01*
X73370314Y-140660314D01*
X73286106Y-140786341D01*
X73256536Y-140935000D01*
X73256536Y-142435000D01*
X73286106Y-142583659D01*
X73370314Y-142709686D01*
X73496341Y-142793894D01*
X73645000Y-142823464D01*
X73664000Y-142823464D01*
X73664000Y-143502631D01*
X72669632Y-144497000D01*
X68760464Y-144497000D01*
X68760464Y-144462010D01*
X71306990Y-144462010D01*
X71548463Y-144413978D01*
X71753174Y-144277194D01*
X72201185Y-143829184D01*
X72337968Y-143624473D01*
X72386000Y-143383000D01*
X72386000Y-142823464D01*
X72405000Y-142823464D01*
X72553659Y-142793894D01*
X72679686Y-142709686D01*
X72763894Y-142583659D01*
X72793464Y-142435000D01*
X72793464Y-140935000D01*
X72763894Y-140786341D01*
X72679686Y-140660314D01*
X72553659Y-140576106D01*
X72405000Y-140546536D01*
X71105000Y-140546536D01*
X70956341Y-140576106D01*
X70830314Y-140660314D01*
X70746106Y-140786341D01*
X70716536Y-140935000D01*
X70716536Y-142435000D01*
X70746106Y-142583659D01*
X70830314Y-142709686D01*
X70956341Y-142793894D01*
X71105000Y-142823464D01*
X71124000Y-142823464D01*
X71124000Y-143121631D01*
X71045622Y-143200010D01*
X69655359Y-143200010D01*
X69661184Y-143194185D01*
X69797968Y-142989474D01*
X69811198Y-142922961D01*
X69830989Y-142823464D01*
X69865000Y-142823464D01*
X70013659Y-142793894D01*
X70139686Y-142709686D01*
X70223894Y-142583659D01*
X70253464Y-142435000D01*
X70253464Y-140935000D01*
X70223894Y-140786341D01*
X70139686Y-140660314D01*
X70013659Y-140576106D01*
X69865000Y-140546536D01*
X68565000Y-140546536D01*
X68416341Y-140576106D01*
X68290314Y-140660314D01*
X68206106Y-140786341D01*
X68176536Y-140935000D01*
X68176536Y-142371000D01*
X67713464Y-142371000D01*
X67713464Y-140935000D01*
X67683894Y-140786341D01*
X67599686Y-140660314D01*
X67473659Y-140576106D01*
X67325000Y-140546536D01*
X66025000Y-140546536D01*
X65876341Y-140576106D01*
X65750314Y-140660314D01*
X65666106Y-140786341D01*
X65636536Y-140935000D01*
X65636536Y-141831095D01*
X64385000Y-143082632D01*
X64385000Y-142635750D01*
X64226250Y-142477000D01*
X62627000Y-142477000D01*
X62627000Y-143726250D01*
X62785750Y-143885000D01*
X63673368Y-143885000D01*
X63631000Y-144098000D01*
X63631000Y-144187594D01*
X63627000Y-144193581D01*
X63566686Y-144103314D01*
X63440659Y-144019106D01*
X63292000Y-143989536D01*
X62692000Y-143989536D01*
X62543341Y-144019106D01*
X62417314Y-144103314D01*
X62357000Y-144193581D01*
X62296686Y-144103314D01*
X62170659Y-144019106D01*
X62022000Y-143989536D01*
X61422000Y-143989536D01*
X61273341Y-144019106D01*
X61147314Y-144103314D01*
X61087000Y-144193581D01*
X61026686Y-144103314D01*
X60900659Y-144019106D01*
X60752000Y-143989536D01*
X60152000Y-143989536D01*
X60003341Y-144019106D01*
X59877314Y-144103314D01*
X59817000Y-144193581D01*
X59756686Y-144103314D01*
X59630659Y-144019106D01*
X59482000Y-143989536D01*
X58882000Y-143989536D01*
X58733341Y-144019106D01*
X58607314Y-144103314D01*
X58523106Y-144229341D01*
X58493536Y-144378000D01*
X57227128Y-144378000D01*
X56980342Y-144131214D01*
X56816184Y-144021527D01*
X56622546Y-143983010D01*
X55716421Y-143983010D01*
X55560979Y-143827296D01*
X55274032Y-143708146D01*
X54963331Y-143707874D01*
X54676177Y-143826524D01*
X54456286Y-144046031D01*
X54337136Y-144332978D01*
X54336864Y-144643679D01*
X54455514Y-144930833D01*
X54675021Y-145150724D01*
X54961968Y-145269874D01*
X55272669Y-145270146D01*
X55531976Y-145163002D01*
X55531762Y-145407035D01*
X55650412Y-145694189D01*
X55869919Y-145914080D01*
X56156866Y-146033230D01*
X56378364Y-146033424D01*
X58091747Y-147746807D01*
X58255905Y-147856494D01*
X58449543Y-147895011D01*
X65210226Y-147895011D01*
X65169136Y-147993968D01*
X65168864Y-148304669D01*
X65287514Y-148591823D01*
X65507021Y-148811714D01*
X65793968Y-148930864D01*
X66104669Y-148931136D01*
X66391823Y-148812486D01*
X66548583Y-148656000D01*
X67403998Y-148656000D01*
X68137534Y-149389536D01*
X67772000Y-149389536D01*
X67623341Y-149419106D01*
X67497314Y-149503314D01*
X67437000Y-149593581D01*
X67376686Y-149503314D01*
X67250659Y-149419106D01*
X67102000Y-149389536D01*
X66502000Y-149389536D01*
X66353341Y-149419106D01*
X66227314Y-149503314D01*
X66167000Y-149593581D01*
X66106686Y-149503314D01*
X65980659Y-149419106D01*
X65832000Y-149389536D01*
X65232000Y-149389536D01*
X65083341Y-149419106D01*
X64957314Y-149503314D01*
X64897000Y-149593581D01*
X64836686Y-149503314D01*
X64710659Y-149419106D01*
X64562000Y-149389536D01*
X63962000Y-149389536D01*
X63828179Y-149416154D01*
X63651699Y-149239673D01*
X63418310Y-149143000D01*
X63277750Y-149143000D01*
X63119000Y-149301750D01*
X63119000Y-150401000D01*
X63139000Y-150401000D01*
X63139000Y-150655000D01*
X63119000Y-150655000D01*
X63119000Y-150675000D01*
X62865000Y-150675000D01*
X62865000Y-150655000D01*
X61849000Y-150655000D01*
X61849000Y-150675000D01*
X61595000Y-150675000D01*
X61595000Y-150655000D01*
X60579000Y-150655000D01*
X60579000Y-151754250D01*
X60737750Y-151913000D01*
X60878310Y-151913000D01*
X61087000Y-151826558D01*
X61295690Y-151913000D01*
X61436250Y-151913000D01*
X61594998Y-151754252D01*
X61594998Y-151913000D01*
X61710741Y-151913000D01*
X61592204Y-151992204D01*
X58896408Y-154688000D01*
X50249002Y-154688000D01*
X49385674Y-153824671D01*
X49891864Y-153824671D01*
X50010514Y-154111825D01*
X50230021Y-154331716D01*
X50516968Y-154450866D01*
X50827669Y-154451138D01*
X51114823Y-154332488D01*
X51271585Y-154176000D01*
X57567579Y-154176000D01*
X57723021Y-154331714D01*
X58009968Y-154450864D01*
X58320669Y-154451136D01*
X58607823Y-154332486D01*
X58827714Y-154112979D01*
X58946864Y-153826032D01*
X58947136Y-153515331D01*
X58828486Y-153228177D01*
X58608979Y-153008286D01*
X58322032Y-152889136D01*
X58011331Y-152888864D01*
X57724177Y-153007514D01*
X57567417Y-153164000D01*
X51271419Y-153164000D01*
X51115979Y-153008288D01*
X50829032Y-152889138D01*
X50518331Y-152888866D01*
X50231177Y-153007516D01*
X50011286Y-153227023D01*
X49892136Y-153513970D01*
X49891864Y-153824671D01*
X49385674Y-153824671D01*
X48128185Y-152567182D01*
X47964027Y-152457495D01*
X47770389Y-152418978D01*
X46285304Y-152418978D01*
X46333864Y-152302032D01*
X46334136Y-151991331D01*
X46215486Y-151704177D01*
X46073298Y-151561740D01*
X46097659Y-151556894D01*
X46179311Y-151502336D01*
X46215301Y-151538327D01*
X46448690Y-151635000D01*
X46914250Y-151635000D01*
X47073000Y-151476250D01*
X47073000Y-150377000D01*
X47327000Y-150377000D01*
X47327000Y-151476250D01*
X47485750Y-151635000D01*
X47951310Y-151635000D01*
X48184699Y-151538327D01*
X48363327Y-151359698D01*
X48460000Y-151126309D01*
X48460000Y-150619270D01*
X50872458Y-150619270D01*
X51347512Y-151768989D01*
X52226384Y-152649396D01*
X53375272Y-153126456D01*
X54619270Y-153127542D01*
X55768989Y-152652488D01*
X56649396Y-151773616D01*
X57047967Y-150813750D01*
X58247000Y-150813750D01*
X58247000Y-151404309D01*
X58343673Y-151637698D01*
X58522301Y-151816327D01*
X58755690Y-151913000D01*
X58896250Y-151913000D01*
X59055000Y-151754250D01*
X59055000Y-150655000D01*
X59309000Y-150655000D01*
X59309000Y-151754250D01*
X59467750Y-151913000D01*
X59608310Y-151913000D01*
X59817000Y-151826558D01*
X60025690Y-151913000D01*
X60166250Y-151913000D01*
X60325000Y-151754250D01*
X60325000Y-150655000D01*
X59309000Y-150655000D01*
X59055000Y-150655000D01*
X58405750Y-150655000D01*
X58247000Y-150813750D01*
X57047967Y-150813750D01*
X57126456Y-150624728D01*
X57127305Y-149651691D01*
X58247000Y-149651691D01*
X58247000Y-150242250D01*
X58405750Y-150401000D01*
X59055000Y-150401000D01*
X59055000Y-149301750D01*
X59309000Y-149301750D01*
X59309000Y-150401000D01*
X60325000Y-150401000D01*
X60325000Y-149301750D01*
X60579000Y-149301750D01*
X60579000Y-150401000D01*
X61595000Y-150401000D01*
X61595000Y-149301750D01*
X61849000Y-149301750D01*
X61849000Y-150401000D01*
X62865000Y-150401000D01*
X62865000Y-149301750D01*
X62706250Y-149143000D01*
X62565690Y-149143000D01*
X62357000Y-149229442D01*
X62148310Y-149143000D01*
X62007750Y-149143000D01*
X61849000Y-149301750D01*
X61595000Y-149301750D01*
X61436250Y-149143000D01*
X61295690Y-149143000D01*
X61087000Y-149229442D01*
X60878310Y-149143000D01*
X60737750Y-149143000D01*
X60579000Y-149301750D01*
X60325000Y-149301750D01*
X60166250Y-149143000D01*
X60025690Y-149143000D01*
X59817000Y-149229442D01*
X59608310Y-149143000D01*
X59467750Y-149143000D01*
X59309000Y-149301750D01*
X59055000Y-149301750D01*
X58896250Y-149143000D01*
X58755690Y-149143000D01*
X58522301Y-149239673D01*
X58343673Y-149418302D01*
X58247000Y-149651691D01*
X57127305Y-149651691D01*
X57127542Y-149380730D01*
X56652488Y-148231011D01*
X55773616Y-147350604D01*
X54624728Y-146873544D01*
X53380730Y-146872458D01*
X52231011Y-147347512D01*
X51350604Y-148226384D01*
X50873544Y-149375272D01*
X50872458Y-150619270D01*
X48460000Y-150619270D01*
X48460000Y-150535750D01*
X48301250Y-150377000D01*
X47327000Y-150377000D01*
X47073000Y-150377000D01*
X47053000Y-150377000D01*
X47053000Y-150123000D01*
X47073000Y-150123000D01*
X47073000Y-150103000D01*
X47327000Y-150103000D01*
X47327000Y-150123000D01*
X48301250Y-150123000D01*
X48460000Y-149964250D01*
X48460000Y-149373691D01*
X48363327Y-149140302D01*
X48184699Y-148961673D01*
X47951310Y-148865000D01*
X47942962Y-148865000D01*
X47973659Y-148858894D01*
X48099686Y-148774686D01*
X48183894Y-148648659D01*
X48213464Y-148500000D01*
X48213464Y-147000000D01*
X48183894Y-146851341D01*
X48099686Y-146725314D01*
X47973659Y-146641106D01*
X47825000Y-146611536D01*
X46575000Y-146611536D01*
X46426341Y-146641106D01*
X46300314Y-146725314D01*
X46262668Y-146781655D01*
X46223686Y-146723314D01*
X46180000Y-146694124D01*
X46180000Y-146099000D01*
X46112938Y-145761856D01*
X45921961Y-145476039D01*
X44122961Y-143677039D01*
X43837144Y-143486062D01*
X43500000Y-143419000D01*
X41012407Y-143419000D01*
X41008894Y-143401341D01*
X40924686Y-143275314D01*
X40798659Y-143191106D01*
X40650000Y-143161536D01*
X39350000Y-143161536D01*
X39201341Y-143191106D01*
X39075314Y-143275314D01*
X38991106Y-143401341D01*
X38987593Y-143419000D01*
X38714922Y-143419000D01*
X36972961Y-141677039D01*
X36687144Y-141486062D01*
X36350000Y-141419000D01*
X31100000Y-141419000D01*
X30762856Y-141486062D01*
X30477039Y-141677039D01*
X30286062Y-141962856D01*
X30219000Y-142300000D01*
X30205989Y-142300000D01*
X30205989Y-137439400D01*
X31259936Y-137439400D01*
X31259936Y-139166600D01*
X31289506Y-139315259D01*
X31373714Y-139441286D01*
X31499741Y-139525494D01*
X31648400Y-139555064D01*
X33375600Y-139555064D01*
X33524259Y-139525494D01*
X33650286Y-139441286D01*
X33734494Y-139315259D01*
X33764064Y-139166600D01*
X33764064Y-138303000D01*
X33783017Y-138303000D01*
X33877757Y-138779288D01*
X34147552Y-139183065D01*
X34551329Y-139452860D01*
X35027617Y-139547600D01*
X35076383Y-139547600D01*
X35552671Y-139452860D01*
X35956448Y-139183065D01*
X36226243Y-138779288D01*
X36320983Y-138303000D01*
X36226243Y-137826712D01*
X35956448Y-137422935D01*
X35552671Y-137153140D01*
X35076383Y-137058400D01*
X35027617Y-137058400D01*
X34551329Y-137153140D01*
X34147552Y-137422935D01*
X33877757Y-137826712D01*
X33783017Y-138303000D01*
X33764064Y-138303000D01*
X33764064Y-137439400D01*
X33734494Y-137290741D01*
X33650286Y-137164714D01*
X33524259Y-137080506D01*
X33375600Y-137050936D01*
X31648400Y-137050936D01*
X31499741Y-137080506D01*
X31373714Y-137164714D01*
X31289506Y-137290741D01*
X31259936Y-137439400D01*
X30205989Y-137439400D01*
X30205989Y-135631933D01*
X31356922Y-134481000D01*
X31631000Y-134481000D01*
X31631000Y-134867268D01*
X31607552Y-134882935D01*
X31337757Y-135286712D01*
X31243017Y-135763000D01*
X31337757Y-136239288D01*
X31607552Y-136643065D01*
X32011329Y-136912860D01*
X32487617Y-137007600D01*
X32536383Y-137007600D01*
X33012671Y-136912860D01*
X33416448Y-136643065D01*
X33686243Y-136239288D01*
X33780983Y-135763000D01*
X33686243Y-135286712D01*
X33416448Y-134882935D01*
X33393000Y-134867268D01*
X33393000Y-134481000D01*
X36863917Y-134481000D01*
X36703510Y-134556179D01*
X36309312Y-134988053D01*
X36201159Y-135249172D01*
X35956448Y-134882935D01*
X35552671Y-134613140D01*
X35076383Y-134518400D01*
X35027617Y-134518400D01*
X34551329Y-134613140D01*
X34147552Y-134882935D01*
X33877757Y-135286712D01*
X33783017Y-135763000D01*
X33877757Y-136239288D01*
X34147552Y-136643065D01*
X34551329Y-136912860D01*
X35027617Y-137007600D01*
X35076383Y-137007600D01*
X35552671Y-136912860D01*
X35956448Y-136643065D01*
X36201159Y-136276828D01*
X36309312Y-136537947D01*
X36703510Y-136969821D01*
X37093662Y-137152676D01*
X37091329Y-137153140D01*
X36687552Y-137422935D01*
X36417757Y-137826712D01*
X36323017Y-138303000D01*
X36417757Y-138779288D01*
X36687552Y-139183065D01*
X37091329Y-139452860D01*
X37567617Y-139547600D01*
X37616383Y-139547600D01*
X38037285Y-139463877D01*
X39119319Y-140545911D01*
X39075314Y-140575314D01*
X38991106Y-140701341D01*
X38961536Y-140850000D01*
X38961536Y-142350000D01*
X38991106Y-142498659D01*
X39075314Y-142624686D01*
X39201341Y-142708894D01*
X39350000Y-142738464D01*
X40650000Y-142738464D01*
X40798659Y-142708894D01*
X40924686Y-142624686D01*
X41008894Y-142498659D01*
X41038464Y-142350000D01*
X41038464Y-140850000D01*
X41008894Y-140701341D01*
X40924686Y-140575314D01*
X40798659Y-140491106D01*
X40650000Y-140461536D01*
X40430181Y-140461536D01*
X40357796Y-140353204D01*
X38769169Y-138764577D01*
X38860983Y-138303000D01*
X38766243Y-137826712D01*
X38496448Y-137422935D01*
X38092671Y-137153140D01*
X38090338Y-137152676D01*
X38480490Y-136969821D01*
X38874688Y-136537947D01*
X39046958Y-136122026D01*
X38925817Y-135890000D01*
X37719000Y-135890000D01*
X37719000Y-135910000D01*
X37465000Y-135910000D01*
X37465000Y-135890000D01*
X37445000Y-135890000D01*
X37445000Y-135636000D01*
X37465000Y-135636000D01*
X37465000Y-135616000D01*
X37719000Y-135616000D01*
X37719000Y-135636000D01*
X38925817Y-135636000D01*
X39046958Y-135403974D01*
X38874688Y-134988053D01*
X38480490Y-134556179D01*
X38320083Y-134481000D01*
X40035078Y-134481000D01*
X41319000Y-135764922D01*
X41319000Y-140500000D01*
X41386062Y-140837144D01*
X41577039Y-141122961D01*
X42269039Y-141814961D01*
X42554856Y-142005938D01*
X42892000Y-142073000D01*
X43796536Y-142073000D01*
X43796536Y-142442000D01*
X43826106Y-142590659D01*
X43910314Y-142716686D01*
X44036341Y-142800894D01*
X44185000Y-142830464D01*
X45985000Y-142830464D01*
X46133659Y-142800894D01*
X46259686Y-142716686D01*
X46343894Y-142590659D01*
X46373464Y-142442000D01*
X46373464Y-142073000D01*
X47606536Y-142073000D01*
X47606536Y-142442000D01*
X47636106Y-142590659D01*
X47720314Y-142716686D01*
X47846341Y-142800894D01*
X47995000Y-142830464D01*
X49795000Y-142830464D01*
X49943659Y-142800894D01*
X50069686Y-142716686D01*
X50153894Y-142590659D01*
X50183464Y-142442000D01*
X50183464Y-142073000D01*
X51416536Y-142073000D01*
X51416536Y-142442000D01*
X51446106Y-142590659D01*
X51530314Y-142716686D01*
X51656341Y-142800894D01*
X51805000Y-142830464D01*
X53605000Y-142830464D01*
X53753659Y-142800894D01*
X53879686Y-142716686D01*
X53963894Y-142590659D01*
X53993464Y-142442000D01*
X53993464Y-142350000D01*
X55019000Y-142350000D01*
X55086062Y-142687144D01*
X55277039Y-142972961D01*
X55562856Y-143163938D01*
X55900000Y-143231000D01*
X56861536Y-143231000D01*
X56861536Y-143250000D01*
X56891106Y-143398659D01*
X56975314Y-143524686D01*
X57101341Y-143608894D01*
X57250000Y-143638464D01*
X59750000Y-143638464D01*
X59898659Y-143608894D01*
X60024686Y-143524686D01*
X60108894Y-143398659D01*
X60138464Y-143250000D01*
X60138464Y-142635750D01*
X60615000Y-142635750D01*
X60615000Y-143376310D01*
X60711673Y-143609699D01*
X60890302Y-143788327D01*
X61123691Y-143885000D01*
X62214250Y-143885000D01*
X62373000Y-143726250D01*
X62373000Y-142477000D01*
X60773750Y-142477000D01*
X60615000Y-142635750D01*
X60138464Y-142635750D01*
X60138464Y-141450000D01*
X60113340Y-141323690D01*
X60615000Y-141323690D01*
X60615000Y-142064250D01*
X60773750Y-142223000D01*
X62373000Y-142223000D01*
X62373000Y-140973750D01*
X62627000Y-140973750D01*
X62627000Y-142223000D01*
X64226250Y-142223000D01*
X64385000Y-142064250D01*
X64385000Y-141323690D01*
X64288327Y-141090301D01*
X64109698Y-140911673D01*
X63876309Y-140815000D01*
X62785750Y-140815000D01*
X62627000Y-140973750D01*
X62373000Y-140973750D01*
X62214250Y-140815000D01*
X61123691Y-140815000D01*
X60890302Y-140911673D01*
X60711673Y-141090301D01*
X60615000Y-141323690D01*
X60113340Y-141323690D01*
X60108894Y-141301341D01*
X60024686Y-141175314D01*
X59898659Y-141091106D01*
X59750000Y-141061536D01*
X57250000Y-141061536D01*
X57101341Y-141091106D01*
X56975314Y-141175314D01*
X56891106Y-141301341D01*
X56861536Y-141450000D01*
X56861536Y-141469000D01*
X55900000Y-141469000D01*
X55562856Y-141536062D01*
X55277039Y-141727039D01*
X55086062Y-142012856D01*
X55019000Y-142350000D01*
X53993464Y-142350000D01*
X53993464Y-142073000D01*
X54007000Y-142073000D01*
X54344144Y-142005938D01*
X54629961Y-141814961D01*
X55272961Y-141171961D01*
X55463938Y-140886144D01*
X55531000Y-140549000D01*
X55531000Y-139592648D01*
X55562862Y-139613938D01*
X55900006Y-139681000D01*
X56861536Y-139681000D01*
X56861536Y-139700000D01*
X56891106Y-139848659D01*
X56975314Y-139974686D01*
X57101341Y-140058894D01*
X57250000Y-140088464D01*
X59750000Y-140088464D01*
X59898659Y-140058894D01*
X60024686Y-139974686D01*
X60108894Y-139848659D01*
X60138464Y-139700000D01*
X60138464Y-139085750D01*
X60615000Y-139085750D01*
X60615000Y-139826310D01*
X60711673Y-140059699D01*
X60890302Y-140238327D01*
X61123691Y-140335000D01*
X62214250Y-140335000D01*
X62373000Y-140176250D01*
X62373000Y-138927000D01*
X62627000Y-138927000D01*
X62627000Y-140176250D01*
X62785750Y-140335000D01*
X63876309Y-140335000D01*
X64109698Y-140238327D01*
X64288327Y-140059699D01*
X64385000Y-139826310D01*
X64385000Y-139085750D01*
X64226250Y-138927000D01*
X62627000Y-138927000D01*
X62373000Y-138927000D01*
X60773750Y-138927000D01*
X60615000Y-139085750D01*
X60138464Y-139085750D01*
X60138464Y-137900000D01*
X60113340Y-137773690D01*
X60615000Y-137773690D01*
X60615000Y-138514250D01*
X60773750Y-138673000D01*
X62373000Y-138673000D01*
X62373000Y-137423750D01*
X62627000Y-137423750D01*
X62627000Y-138673000D01*
X64226250Y-138673000D01*
X64385000Y-138514250D01*
X64385000Y-137773690D01*
X64288327Y-137540301D01*
X64109698Y-137361673D01*
X63876309Y-137265000D01*
X62785750Y-137265000D01*
X62627000Y-137423750D01*
X62373000Y-137423750D01*
X62214250Y-137265000D01*
X61123691Y-137265000D01*
X60890302Y-137361673D01*
X60711673Y-137540301D01*
X60615000Y-137773690D01*
X60113340Y-137773690D01*
X60108894Y-137751341D01*
X60024686Y-137625314D01*
X59898659Y-137541106D01*
X59750000Y-137511536D01*
X57250000Y-137511536D01*
X57101341Y-137541106D01*
X56975314Y-137625314D01*
X56891106Y-137751341D01*
X56861536Y-137900000D01*
X56861536Y-137919000D01*
X55900006Y-137919000D01*
X55626523Y-137973399D01*
X55740961Y-137858961D01*
X55931938Y-137573144D01*
X55999000Y-137236000D01*
X55999000Y-137086086D01*
X56262719Y-137225592D01*
X56300391Y-137229462D01*
X56491000Y-137104731D01*
X56491000Y-135763000D01*
X56745000Y-135763000D01*
X56745000Y-137104731D01*
X56935609Y-137229462D01*
X56973281Y-137225592D01*
X57401474Y-136999080D01*
X57710390Y-136625947D01*
X57853000Y-136163000D01*
X57853000Y-135763000D01*
X56745000Y-135763000D01*
X56491000Y-135763000D01*
X56471000Y-135763000D01*
X56471000Y-135509000D01*
X56491000Y-135509000D01*
X56491000Y-135489000D01*
X56745000Y-135489000D01*
X56745000Y-135509000D01*
X57853000Y-135509000D01*
X57853000Y-135109000D01*
X57767934Y-134832856D01*
X59194039Y-136258961D01*
X59479856Y-136449938D01*
X59817000Y-136517000D01*
X59971536Y-136517000D01*
X59971536Y-136636000D01*
X60001106Y-136784659D01*
X60085314Y-136910686D01*
X60211341Y-136994894D01*
X60360000Y-137024464D01*
X61560000Y-137024464D01*
X61679556Y-137000683D01*
X62104719Y-137225592D01*
X62142391Y-137229462D01*
X62333000Y-137104731D01*
X62333000Y-135763000D01*
X62587000Y-135763000D01*
X62587000Y-137104731D01*
X62777609Y-137229462D01*
X62815281Y-137225592D01*
X63243474Y-136999080D01*
X63552390Y-136625947D01*
X63695000Y-136163000D01*
X63695000Y-135763000D01*
X62587000Y-135763000D01*
X62333000Y-135763000D01*
X62313000Y-135763000D01*
X62313000Y-135675000D01*
X65436536Y-135675000D01*
X65436536Y-137375000D01*
X65466106Y-137523659D01*
X65550314Y-137649686D01*
X65676341Y-137733894D01*
X65825000Y-137763464D01*
X66044000Y-137763464D01*
X66044000Y-137846536D01*
X66025000Y-137846536D01*
X65876341Y-137876106D01*
X65750314Y-137960314D01*
X65666106Y-138086341D01*
X65636536Y-138235000D01*
X65636536Y-139735000D01*
X65666106Y-139883659D01*
X65750314Y-140009686D01*
X65876341Y-140093894D01*
X66025000Y-140123464D01*
X67325000Y-140123464D01*
X67473659Y-140093894D01*
X67599686Y-140009686D01*
X67683894Y-139883659D01*
X67713464Y-139735000D01*
X67713464Y-138235000D01*
X67683894Y-138086341D01*
X67599686Y-137960314D01*
X67473659Y-137876106D01*
X67325000Y-137846536D01*
X67306000Y-137846536D01*
X67306000Y-137763464D01*
X67525000Y-137763464D01*
X67673659Y-137733894D01*
X67799686Y-137649686D01*
X67883894Y-137523659D01*
X67913464Y-137375000D01*
X67913464Y-135675000D01*
X67976536Y-135675000D01*
X67976536Y-137375000D01*
X68006106Y-137523659D01*
X68090314Y-137649686D01*
X68216341Y-137733894D01*
X68365000Y-137763464D01*
X68584000Y-137763464D01*
X68584000Y-137846536D01*
X68565000Y-137846536D01*
X68416341Y-137876106D01*
X68290314Y-137960314D01*
X68206106Y-138086341D01*
X68176536Y-138235000D01*
X68176536Y-139735000D01*
X68206106Y-139883659D01*
X68290314Y-140009686D01*
X68416341Y-140093894D01*
X68565000Y-140123464D01*
X69865000Y-140123464D01*
X70013659Y-140093894D01*
X70139686Y-140009686D01*
X70223894Y-139883659D01*
X70253464Y-139735000D01*
X70253464Y-138235000D01*
X70223894Y-138086341D01*
X70139686Y-137960314D01*
X70013659Y-137876106D01*
X69865000Y-137846536D01*
X69846000Y-137846536D01*
X69846000Y-137763464D01*
X70065000Y-137763464D01*
X70213659Y-137733894D01*
X70339686Y-137649686D01*
X70423894Y-137523659D01*
X70453464Y-137375000D01*
X70453464Y-135675000D01*
X70516536Y-135675000D01*
X70516536Y-137375000D01*
X70546106Y-137523659D01*
X70630314Y-137649686D01*
X70756341Y-137733894D01*
X70905000Y-137763464D01*
X71124000Y-137763464D01*
X71124000Y-137846536D01*
X71105000Y-137846536D01*
X70956341Y-137876106D01*
X70830314Y-137960314D01*
X70746106Y-138086341D01*
X70716536Y-138235000D01*
X70716536Y-139735000D01*
X70746106Y-139883659D01*
X70830314Y-140009686D01*
X70956341Y-140093894D01*
X71105000Y-140123464D01*
X72405000Y-140123464D01*
X72553659Y-140093894D01*
X72679686Y-140009686D01*
X72763894Y-139883659D01*
X72793464Y-139735000D01*
X72793464Y-138235000D01*
X72763894Y-138086341D01*
X72679686Y-137960314D01*
X72553659Y-137876106D01*
X72405000Y-137846536D01*
X72386000Y-137846536D01*
X72386000Y-137763464D01*
X72605000Y-137763464D01*
X72753659Y-137733894D01*
X72879686Y-137649686D01*
X72963894Y-137523659D01*
X72993464Y-137375000D01*
X72993464Y-135675000D01*
X73056536Y-135675000D01*
X73056536Y-137375000D01*
X73086106Y-137523659D01*
X73170314Y-137649686D01*
X73296341Y-137733894D01*
X73445000Y-137763464D01*
X73664000Y-137763464D01*
X73664000Y-137846536D01*
X73645000Y-137846536D01*
X73496341Y-137876106D01*
X73370314Y-137960314D01*
X73286106Y-138086341D01*
X73256536Y-138235000D01*
X73256536Y-139735000D01*
X73286106Y-139883659D01*
X73370314Y-140009686D01*
X73496341Y-140093894D01*
X73645000Y-140123464D01*
X74945000Y-140123464D01*
X75093659Y-140093894D01*
X75219686Y-140009686D01*
X75235872Y-139985461D01*
X76104092Y-139985461D01*
X76128144Y-140635460D01*
X76330613Y-141124264D01*
X76597468Y-141222927D01*
X77570395Y-140250000D01*
X77929605Y-140250000D01*
X78902532Y-141222927D01*
X79169387Y-141124264D01*
X79395908Y-140514539D01*
X79371856Y-139864540D01*
X79169387Y-139375736D01*
X78902532Y-139277073D01*
X77929605Y-140250000D01*
X77570395Y-140250000D01*
X76597468Y-139277073D01*
X76330613Y-139375736D01*
X76104092Y-139985461D01*
X75235872Y-139985461D01*
X75303894Y-139883659D01*
X75333464Y-139735000D01*
X75333464Y-139097468D01*
X76777073Y-139097468D01*
X77750000Y-140070395D01*
X78722927Y-139097468D01*
X78624264Y-138830613D01*
X78014539Y-138604092D01*
X77364540Y-138628144D01*
X76875736Y-138830613D01*
X76777073Y-139097468D01*
X75333464Y-139097468D01*
X75333464Y-138235000D01*
X75303894Y-138086341D01*
X75219686Y-137960314D01*
X75093659Y-137876106D01*
X74945000Y-137846536D01*
X74926000Y-137846536D01*
X74926000Y-137763464D01*
X75145000Y-137763464D01*
X75293659Y-137733894D01*
X75419686Y-137649686D01*
X75503894Y-137523659D01*
X75533464Y-137375000D01*
X75533464Y-135675000D01*
X75503894Y-135526341D01*
X75419686Y-135400314D01*
X75293659Y-135316106D01*
X75145000Y-135286536D01*
X73445000Y-135286536D01*
X73296341Y-135316106D01*
X73170314Y-135400314D01*
X73086106Y-135526341D01*
X73056536Y-135675000D01*
X72993464Y-135675000D01*
X72963894Y-135526341D01*
X72879686Y-135400314D01*
X72753659Y-135316106D01*
X72605000Y-135286536D01*
X70905000Y-135286536D01*
X70756341Y-135316106D01*
X70630314Y-135400314D01*
X70546106Y-135526341D01*
X70516536Y-135675000D01*
X70453464Y-135675000D01*
X70423894Y-135526341D01*
X70339686Y-135400314D01*
X70213659Y-135316106D01*
X70065000Y-135286536D01*
X68365000Y-135286536D01*
X68216341Y-135316106D01*
X68090314Y-135400314D01*
X68006106Y-135526341D01*
X67976536Y-135675000D01*
X67913464Y-135675000D01*
X67883894Y-135526341D01*
X67799686Y-135400314D01*
X67673659Y-135316106D01*
X67525000Y-135286536D01*
X65825000Y-135286536D01*
X65676341Y-135316106D01*
X65550314Y-135400314D01*
X65466106Y-135526341D01*
X65436536Y-135675000D01*
X62313000Y-135675000D01*
X62313000Y-135509000D01*
X62333000Y-135509000D01*
X62333000Y-134167269D01*
X62587000Y-134167269D01*
X62587000Y-135509000D01*
X63695000Y-135509000D01*
X63695000Y-135109000D01*
X63552390Y-134646053D01*
X63243474Y-134272920D01*
X62815281Y-134046408D01*
X62777609Y-134042538D01*
X62587000Y-134167269D01*
X62333000Y-134167269D01*
X62142391Y-134042538D01*
X62104719Y-134046408D01*
X61679556Y-134271317D01*
X61560000Y-134247536D01*
X60360000Y-134247536D01*
X60211341Y-134277106D01*
X60085314Y-134361314D01*
X60001106Y-134487341D01*
X59986698Y-134559776D01*
X59411922Y-133985000D01*
X65419883Y-133985000D01*
X65513587Y-134456083D01*
X65780435Y-134855448D01*
X66179800Y-135122296D01*
X66650883Y-135216000D01*
X66699117Y-135216000D01*
X67170200Y-135122296D01*
X67569565Y-134855448D01*
X67836413Y-134456083D01*
X67930117Y-133985000D01*
X67959883Y-133985000D01*
X68053587Y-134456083D01*
X68320435Y-134855448D01*
X68719800Y-135122296D01*
X69190883Y-135216000D01*
X69239117Y-135216000D01*
X69710200Y-135122296D01*
X70109565Y-134855448D01*
X70376413Y-134456083D01*
X70470117Y-133985000D01*
X70499883Y-133985000D01*
X70593587Y-134456083D01*
X70860435Y-134855448D01*
X71259800Y-135122296D01*
X71730883Y-135216000D01*
X71779117Y-135216000D01*
X72250200Y-135122296D01*
X72649565Y-134855448D01*
X72916413Y-134456083D01*
X73010117Y-133985000D01*
X73039883Y-133985000D01*
X73133587Y-134456083D01*
X73400435Y-134855448D01*
X73799800Y-135122296D01*
X74270883Y-135216000D01*
X74319117Y-135216000D01*
X74790200Y-135122296D01*
X75173773Y-134866000D01*
X76680809Y-134866000D01*
X76579928Y-134966705D01*
X76369241Y-135474097D01*
X76368761Y-136023493D01*
X76578563Y-136531251D01*
X76966705Y-136920072D01*
X77474097Y-137130759D01*
X78023493Y-137131239D01*
X78531251Y-136921437D01*
X78920072Y-136533295D01*
X79130759Y-136025903D01*
X79131239Y-135476507D01*
X78921437Y-134968749D01*
X78818867Y-134866000D01*
X79264078Y-134866000D01*
X80272000Y-135873922D01*
X80272000Y-141113078D01*
X77609039Y-143776039D01*
X77418062Y-144061856D01*
X77351000Y-144399000D01*
X77351000Y-147552000D01*
X77418062Y-147889144D01*
X77609039Y-148174961D01*
X78757039Y-149322961D01*
X79042856Y-149513938D01*
X79380000Y-149581000D01*
X80106674Y-149581000D01*
X79999139Y-149839972D01*
X79998861Y-150158630D01*
X80120549Y-150453138D01*
X80345677Y-150678659D01*
X80367202Y-150687597D01*
X80800000Y-151120395D01*
X80827257Y-151093138D01*
X80861204Y-151175095D01*
X81068087Y-151202308D01*
X81620395Y-150650000D01*
X81606253Y-150635858D01*
X81785858Y-150456253D01*
X81800000Y-150470395D01*
X81814143Y-150456253D01*
X81993748Y-150635858D01*
X81979605Y-150650000D01*
X81993748Y-150664143D01*
X81814143Y-150843748D01*
X81800000Y-150829605D01*
X81772743Y-150856862D01*
X81738796Y-150774905D01*
X81531913Y-150747692D01*
X80979605Y-151300000D01*
X81531913Y-151852308D01*
X81738796Y-151825095D01*
X81776059Y-151710203D01*
X82092531Y-151685127D01*
X82298000Y-151600019D01*
X82298000Y-152718424D01*
X82118256Y-152656349D01*
X81199605Y-153575000D01*
X81213748Y-153589143D01*
X81034143Y-153768748D01*
X81020000Y-153754605D01*
X81005858Y-153768748D01*
X80826253Y-153589143D01*
X80840395Y-153575000D01*
X79921744Y-152656349D01*
X79662668Y-152745821D01*
X79448675Y-153328368D01*
X79473903Y-153948461D01*
X79648975Y-154371121D01*
X79568159Y-154404514D01*
X79348268Y-154624021D01*
X79229118Y-154910968D01*
X79228846Y-155221669D01*
X79347496Y-155508823D01*
X79567003Y-155728714D01*
X79766000Y-155811344D01*
X79766000Y-156325250D01*
X79924750Y-156484000D01*
X80899000Y-156484000D01*
X80899000Y-156464000D01*
X81153000Y-156464000D01*
X81153000Y-156484000D01*
X82127250Y-156484000D01*
X82286000Y-156325250D01*
X82286000Y-155734691D01*
X82189327Y-155501302D01*
X82126029Y-155438004D01*
X82145796Y-155424796D01*
X83161796Y-154408796D01*
X83271483Y-154244638D01*
X83310000Y-154051000D01*
X83310000Y-150354000D01*
X83271483Y-150160362D01*
X83161796Y-149996204D01*
X82600926Y-149435334D01*
X82601139Y-149191370D01*
X82479451Y-148896862D01*
X82254323Y-148671341D01*
X81960028Y-148549139D01*
X81650938Y-148548869D01*
X81613938Y-148362856D01*
X81608464Y-148354664D01*
X81608464Y-148280000D01*
X81578894Y-148131341D01*
X81494686Y-148005314D01*
X81424336Y-147958308D01*
X81849179Y-147782332D01*
X81938651Y-147523256D01*
X81020000Y-146604605D01*
X80101349Y-147523256D01*
X80190821Y-147782332D01*
X80290641Y-147819000D01*
X79744922Y-147819000D01*
X79113000Y-147187078D01*
X79113000Y-146178368D01*
X79448675Y-146178368D01*
X79473903Y-146798461D01*
X79662668Y-147254179D01*
X79921744Y-147343651D01*
X80840395Y-146425000D01*
X81199605Y-146425000D01*
X82118256Y-147343651D01*
X82377332Y-147254179D01*
X82591325Y-146671632D01*
X82566097Y-146051539D01*
X82377332Y-145595821D01*
X82118256Y-145506349D01*
X81199605Y-146425000D01*
X80840395Y-146425000D01*
X79921744Y-145506349D01*
X79662668Y-145595821D01*
X79448675Y-146178368D01*
X79113000Y-146178368D01*
X79113000Y-145326744D01*
X80101349Y-145326744D01*
X81020000Y-146245395D01*
X81938651Y-145326744D01*
X81849179Y-145067668D01*
X81266632Y-144853675D01*
X80646539Y-144878903D01*
X80190821Y-145067668D01*
X80101349Y-145326744D01*
X79113000Y-145326744D01*
X79113000Y-144763922D01*
X81775961Y-142100961D01*
X81966938Y-141815144D01*
X82034000Y-141478000D01*
X82034000Y-141402532D01*
X83277073Y-141402532D01*
X83375736Y-141669387D01*
X83985461Y-141895908D01*
X84635460Y-141871856D01*
X85124264Y-141669387D01*
X85222927Y-141402532D01*
X84250000Y-140429605D01*
X83277073Y-141402532D01*
X82034000Y-141402532D01*
X82034000Y-139985461D01*
X82604092Y-139985461D01*
X82628144Y-140635460D01*
X82830613Y-141124264D01*
X83097468Y-141222927D01*
X84070395Y-140250000D01*
X84429605Y-140250000D01*
X85402532Y-141222927D01*
X85669387Y-141124264D01*
X85895908Y-140514539D01*
X85871856Y-139864540D01*
X85669387Y-139375736D01*
X85402532Y-139277073D01*
X84429605Y-140250000D01*
X84070395Y-140250000D01*
X83097468Y-139277073D01*
X82830613Y-139375736D01*
X82604092Y-139985461D01*
X82034000Y-139985461D01*
X82034000Y-139097468D01*
X83277073Y-139097468D01*
X84250000Y-140070395D01*
X85222927Y-139097468D01*
X85124264Y-138830613D01*
X84514539Y-138604092D01*
X83864540Y-138628144D01*
X83375736Y-138830613D01*
X83277073Y-139097468D01*
X82034000Y-139097468D01*
X82034000Y-136023493D01*
X82868761Y-136023493D01*
X83078563Y-136531251D01*
X83466705Y-136920072D01*
X83974097Y-137130759D01*
X84523493Y-137131239D01*
X85031251Y-136921437D01*
X85420072Y-136533295D01*
X85630759Y-136025903D01*
X85631239Y-135476507D01*
X85421437Y-134968749D01*
X85033295Y-134579928D01*
X84525903Y-134369241D01*
X83976507Y-134368761D01*
X83468749Y-134578563D01*
X83079928Y-134966705D01*
X82869241Y-135474097D01*
X82868761Y-136023493D01*
X82034000Y-136023493D01*
X82034000Y-135509000D01*
X81995631Y-135316106D01*
X81966938Y-135171855D01*
X81775961Y-134886039D01*
X80251961Y-133362039D01*
X79966144Y-133171062D01*
X79629000Y-133104000D01*
X75173773Y-133104000D01*
X74790200Y-132847704D01*
X74319117Y-132754000D01*
X74270883Y-132754000D01*
X73799800Y-132847704D01*
X73400435Y-133114552D01*
X73133587Y-133513917D01*
X73039883Y-133985000D01*
X73010117Y-133985000D01*
X72916413Y-133513917D01*
X72649565Y-133114552D01*
X72250200Y-132847704D01*
X71779117Y-132754000D01*
X71730883Y-132754000D01*
X71259800Y-132847704D01*
X70860435Y-133114552D01*
X70593587Y-133513917D01*
X70499883Y-133985000D01*
X70470117Y-133985000D01*
X70376413Y-133513917D01*
X70109565Y-133114552D01*
X69710200Y-132847704D01*
X69239117Y-132754000D01*
X69190883Y-132754000D01*
X68719800Y-132847704D01*
X68320435Y-133114552D01*
X68053587Y-133513917D01*
X67959883Y-133985000D01*
X67930117Y-133985000D01*
X67836413Y-133513917D01*
X67569565Y-133114552D01*
X67170200Y-132847704D01*
X66699117Y-132754000D01*
X66650883Y-132754000D01*
X66179800Y-132847704D01*
X65780435Y-133114552D01*
X65513587Y-133513917D01*
X65419883Y-133985000D01*
X59411922Y-133985000D01*
X58280961Y-132854039D01*
X57995144Y-132663062D01*
X57658000Y-132596000D01*
X53721000Y-132596000D01*
X53383856Y-132663062D01*
X53098039Y-132854039D01*
X52082039Y-133870039D01*
X51891062Y-134155856D01*
X51824000Y-134493000D01*
X51824000Y-135553536D01*
X51805000Y-135553536D01*
X51656341Y-135583106D01*
X51530314Y-135667314D01*
X51446106Y-135793341D01*
X51416536Y-135942000D01*
X51416536Y-138442000D01*
X51446106Y-138590659D01*
X51530314Y-138716686D01*
X51656341Y-138800894D01*
X51805000Y-138830464D01*
X53605000Y-138830464D01*
X53753659Y-138800894D01*
X53769000Y-138790644D01*
X53769000Y-139593356D01*
X53753659Y-139583106D01*
X53605000Y-139553536D01*
X51805000Y-139553536D01*
X51656341Y-139583106D01*
X51530314Y-139667314D01*
X51446106Y-139793341D01*
X51416536Y-139942000D01*
X51416536Y-140311000D01*
X50183464Y-140311000D01*
X50183464Y-139942000D01*
X50153894Y-139793341D01*
X50069686Y-139667314D01*
X49943659Y-139583106D01*
X49795000Y-139553536D01*
X47995000Y-139553536D01*
X47846341Y-139583106D01*
X47720314Y-139667314D01*
X47636106Y-139793341D01*
X47606536Y-139942000D01*
X47606536Y-140311000D01*
X46373464Y-140311000D01*
X46373464Y-139942000D01*
X46343894Y-139793341D01*
X46259686Y-139667314D01*
X46133659Y-139583106D01*
X45985000Y-139553536D01*
X44185000Y-139553536D01*
X44036341Y-139583106D01*
X43910314Y-139667314D01*
X43826106Y-139793341D01*
X43796536Y-139942000D01*
X43796536Y-140311000D01*
X43256922Y-140311000D01*
X43081000Y-140135078D01*
X43081000Y-135942000D01*
X43796536Y-135942000D01*
X43796536Y-138442000D01*
X43826106Y-138590659D01*
X43910314Y-138716686D01*
X44036341Y-138800894D01*
X44185000Y-138830464D01*
X45985000Y-138830464D01*
X46133659Y-138800894D01*
X46259686Y-138716686D01*
X46343894Y-138590659D01*
X46373464Y-138442000D01*
X46373464Y-135942000D01*
X46343894Y-135793341D01*
X46259686Y-135667314D01*
X46133659Y-135583106D01*
X45985000Y-135553536D01*
X45966000Y-135553536D01*
X45966000Y-134863773D01*
X46222296Y-134480200D01*
X46316000Y-134009117D01*
X46316000Y-133960883D01*
X46222296Y-133489800D01*
X45985226Y-133135000D01*
X46386536Y-133135000D01*
X46386536Y-134835000D01*
X46416106Y-134983659D01*
X46500314Y-135109686D01*
X46626341Y-135193894D01*
X46775000Y-135223464D01*
X47617542Y-135223464D01*
X47955476Y-135561398D01*
X47846341Y-135583106D01*
X47720314Y-135667314D01*
X47636106Y-135793341D01*
X47606536Y-135942000D01*
X47606536Y-138442000D01*
X47636106Y-138590659D01*
X47720314Y-138716686D01*
X47846341Y-138800894D01*
X47995000Y-138830464D01*
X49795000Y-138830464D01*
X49943659Y-138800894D01*
X50069686Y-138716686D01*
X50153894Y-138590659D01*
X50183464Y-138442000D01*
X50183464Y-135942000D01*
X50153894Y-135793341D01*
X50069686Y-135667314D01*
X49943659Y-135583106D01*
X49795000Y-135553536D01*
X49776000Y-135553536D01*
X49776000Y-135255000D01*
X49708938Y-134917856D01*
X49517961Y-134632039D01*
X48863464Y-133977542D01*
X48863464Y-133135000D01*
X48833894Y-132986341D01*
X48749686Y-132860314D01*
X48623659Y-132776106D01*
X48475000Y-132746536D01*
X46775000Y-132746536D01*
X46626341Y-132776106D01*
X46500314Y-132860314D01*
X46416106Y-132986341D01*
X46386536Y-133135000D01*
X45985226Y-133135000D01*
X45955448Y-133090435D01*
X45556083Y-132823587D01*
X45085000Y-132729883D01*
X44613917Y-132823587D01*
X44214552Y-133090435D01*
X43947704Y-133489800D01*
X43854000Y-133960883D01*
X43854000Y-134009117D01*
X43947704Y-134480200D01*
X44204000Y-134863773D01*
X44204000Y-135553536D01*
X44185000Y-135553536D01*
X44036341Y-135583106D01*
X43910314Y-135667314D01*
X43826106Y-135793341D01*
X43796536Y-135942000D01*
X43081000Y-135942000D01*
X43081000Y-135400000D01*
X43075828Y-135374000D01*
X43013938Y-135062855D01*
X42822961Y-134777039D01*
X41022961Y-132977039D01*
X40737144Y-132786062D01*
X40400000Y-132719000D01*
X30992000Y-132719000D01*
X30654856Y-132786062D01*
X30369039Y-132977039D01*
X28702028Y-134644050D01*
X28511051Y-134929867D01*
X28443989Y-135267011D01*
X27481000Y-135267011D01*
X27481000Y-132481000D01*
X86519000Y-132481000D01*
X86519000Y-150000000D01*
%TD*%
M02*
